<svg width="144" height="25" viewBox="0 0 144 25" fill="none" xmlns="http://www.w3.org/2000/svg">
<path d="M23.195 2.3V24H20.994V6.64L12.469 21.241H11.384L2.859 6.733V24H0.658V2.3H2.549L11.973 18.389L21.304 2.3H23.195ZM36.7076 24.155C35.1369 24.155 33.7213 23.8037 32.4606 23.101C31.1999 22.3777 30.2079 21.3857 29.4846 20.125C28.7613 18.8643 28.3996 17.4383 28.3996 15.847C28.3996 14.2557 28.7613 12.8297 29.4846 11.569C30.2079 10.3083 31.1999 9.32667 32.4606 8.624C33.7213 7.92133 35.1369 7.57 36.7076 7.57C38.2783 7.57 39.6939 7.92133 40.9546 8.624C42.2153 9.32667 43.1969 10.3083 43.8996 11.569C44.6229 12.8297 44.9846 14.2557 44.9846 15.847C44.9846 17.4383 44.6229 18.8643 43.8996 20.125C43.1969 21.3857 42.2153 22.3777 40.9546 23.101C39.6939 23.8037 38.2783 24.155 36.7076 24.155ZM36.7076 22.202C37.8649 22.202 38.8983 21.9437 39.8076 21.427C40.7376 20.8897 41.4609 20.1353 41.9776 19.164C42.4943 18.1927 42.7526 17.087 42.7526 15.847C42.7526 14.607 42.4943 13.5013 41.9776 12.53C41.4609 11.5587 40.7376 10.8147 39.8076 10.298C38.8983 9.76067 37.8649 9.492 36.7076 9.492C35.5503 9.492 34.5066 9.76067 33.5766 10.298C32.6673 10.8147 31.9439 11.5587 31.4066 12.53C30.8899 13.5013 30.6316 14.607 30.6316 15.847C30.6316 17.087 30.8899 18.1927 31.4066 19.164C31.9439 20.1353 32.6673 20.8897 33.5766 21.427C34.5066 21.9437 35.5503 22.202 36.7076 22.202ZM49.6886 7.694H51.8896V20.652L62.7706 7.694H64.7236V24H62.5226V11.042L51.6726 24H49.6886V7.694ZM57.0976 5.338C55.6923 5.338 54.5763 4.98667 53.7496 4.284C52.923 3.58133 52.4993 2.58933 52.4786 1.308H54.0596C54.0803 2.114 54.3696 2.765 54.9276 3.261C55.4856 3.73633 56.209 3.974 57.0976 3.974C57.9863 3.974 58.7096 3.73633 59.2676 3.261C59.8463 2.765 60.146 2.114 60.1666 1.308H61.7476C61.727 2.58933 61.293 3.58133 60.4456 4.284C59.619 4.98667 58.503 5.338 57.0976 5.338Z" fill="#48C8B7"/>
<path d="M78.3784 15.475L75.4644 18.513V24H70.4734V2.3H75.4644V12.437L85.0744 2.3H90.6544L81.6644 11.972L91.1814 24H85.3224L78.3784 15.475ZM108.72 15.723C108.72 15.785 108.689 16.219 108.627 17.025H96.0104C96.2377 18.0583 96.775 18.8747 97.6224 19.474C98.4697 20.0733 99.5237 20.373 100.784 20.373C101.652 20.373 102.417 20.249 103.078 20.001C103.76 19.7323 104.391 19.319 104.969 18.761L107.542 21.551C105.972 23.349 103.678 24.248 100.66 24.248C98.7797 24.248 97.116 23.8863 95.6694 23.163C94.2227 22.419 93.1067 21.396 92.3214 20.094C91.536 18.792 91.1434 17.3143 91.1434 15.661C91.1434 14.0283 91.5257 12.561 92.2904 11.259C93.0757 9.93633 94.14 8.91333 95.4834 8.19C96.8474 7.446 98.3664 7.074 100.04 7.074C101.673 7.074 103.151 7.42533 104.473 8.128C105.796 8.83067 106.829 9.84333 107.573 11.166C108.338 12.468 108.72 13.987 108.72 15.723ZM100.071 10.732C98.976 10.732 98.0564 11.042 97.3124 11.662C96.5684 12.282 96.1137 13.1293 95.9484 14.204H104.163C103.998 13.15 103.543 12.313 102.799 11.693C102.055 11.0523 101.146 10.732 100.071 10.732ZM128.928 0.997999V24H124.309V22.078C123.11 23.5247 121.374 24.248 119.101 24.248C117.53 24.248 116.104 23.8967 114.823 23.194C113.562 22.4913 112.57 21.489 111.847 20.187C111.124 18.885 110.762 17.3763 110.762 15.661C110.762 13.9457 111.124 12.437 111.847 11.135C112.57 9.833 113.562 8.83067 114.823 8.128C116.104 7.42533 117.53 7.074 119.101 7.074C121.23 7.074 122.893 7.74567 124.092 9.089V0.997999H128.928ZM119.938 20.28C121.157 20.28 122.17 19.8667 122.976 19.04C123.782 18.1927 124.185 17.0663 124.185 15.661C124.185 14.2557 123.782 13.1397 122.976 12.313C122.17 11.4657 121.157 11.042 119.938 11.042C118.698 11.042 117.675 11.4657 116.869 12.313C116.063 13.1397 115.66 14.2557 115.66 15.661C115.66 17.0663 116.063 18.1927 116.869 19.04C117.675 19.8667 118.698 20.28 119.938 20.28ZM138.023 9.523C138.602 8.717 139.377 8.10733 140.348 7.694C141.34 7.28067 142.477 7.074 143.758 7.074V11.538C143.221 11.4967 142.859 11.476 142.673 11.476C141.288 11.476 140.203 11.8687 139.418 12.654C138.633 13.4187 138.24 14.576 138.24 16.126V24H133.404V7.322H138.023V9.523Z" fill="#142E55"/>
</svg>
