<svg width="153" height="26" viewBox="0 0 153 26" fill="none" xmlns="http://www.w3.org/2000/svg">
<path d="M24.753 1.9V25H22.41V6.52L13.335 22.063H12.18L3.105 6.619V25H0.762V1.9H2.775L12.807 19.027L22.74 1.9H24.753ZM39.0116 25.165C37.3396 25.165 35.8326 24.791 34.4906 24.043C33.1486 23.273 32.0926 22.217 31.3226 20.875C30.5526 19.533 30.1676 18.015 30.1676 16.321C30.1676 14.627 30.5526 13.109 31.3226 11.767C32.0926 10.425 33.1486 9.38 34.4906 8.632C35.8326 7.884 37.3396 7.51 39.0116 7.51C40.6836 7.51 42.1906 7.884 43.5326 8.632C44.8746 9.38 45.9196 10.425 46.6676 11.767C47.4376 13.109 47.8226 14.627 47.8226 16.321C47.8226 18.015 47.4376 19.533 46.6676 20.875C45.9196 22.217 44.8746 23.273 43.5326 24.043C42.1906 24.791 40.6836 25.165 39.0116 25.165ZM39.0116 23.086C40.2436 23.086 41.3436 22.811 42.3116 22.261C43.3016 21.689 44.0716 20.886 44.6216 19.852C45.1716 18.818 45.4466 17.641 45.4466 16.321C45.4466 15.001 45.1716 13.824 44.6216 12.79C44.0716 11.756 43.3016 10.964 42.3116 10.414C41.3436 9.842 40.2436 9.556 39.0116 9.556C37.7796 9.556 36.6686 9.842 35.6786 10.414C34.7106 10.964 33.9406 11.756 33.3686 12.79C32.8186 13.824 32.5436 15.001 32.5436 16.321C32.5436 17.641 32.8186 18.818 33.3686 19.852C33.9406 20.886 34.7106 21.689 35.6786 22.261C36.6686 22.811 37.7796 23.086 39.0116 23.086ZM52.8301 7.642H55.1731V21.436L66.7561 7.642H68.8351V25H66.4921V11.206L54.9421 25H52.8301V7.642ZM60.7171 5.134C59.2211 5.134 58.0331 4.76 57.1531 4.012C56.2731 3.264 55.8221 2.208 55.8001 0.843998H57.4831C57.5051 1.702 57.8131 2.395 58.4071 2.923C59.0011 3.429 59.7711 3.682 60.7171 3.682C61.6631 3.682 62.4331 3.429 63.0271 2.923C63.6431 2.395 63.9621 1.702 63.9841 0.843998H65.6671C65.6451 2.208 65.1831 3.264 64.2811 4.012C63.4011 4.76 62.2131 5.134 60.7171 5.134Z" fill="#48C8B7"/>
<path d="M83.3708 15.925L80.2688 19.159V25H74.9558V1.9H80.2688V12.691L90.4988 1.9H96.4388L86.8688 12.196L96.9998 25H90.7628L83.3708 15.925ZM115.67 16.189C115.67 16.255 115.637 16.717 115.571 17.575H102.14C102.382 18.675 102.954 19.544 103.856 20.182C104.758 20.82 105.88 21.139 107.222 21.139C108.146 21.139 108.96 21.007 109.664 20.743C110.39 20.457 111.061 20.017 111.677 19.423L114.416 22.393C112.744 24.307 110.302 25.264 107.09 25.264C105.088 25.264 103.317 24.879 101.777 24.109C100.237 23.317 99.0493 22.228 98.2133 20.842C97.3773 19.456 96.9593 17.883 96.9593 16.123C96.9593 14.385 97.3663 12.823 98.1803 11.437C99.0163 10.029 100.149 8.94 101.579 8.17C103.031 7.378 104.648 6.982 106.43 6.982C108.168 6.982 109.741 7.356 111.149 8.104C112.557 8.852 113.657 9.93 114.449 11.338C115.263 12.724 115.67 14.341 115.67 16.189ZM106.463 10.876C105.297 10.876 104.318 11.206 103.526 11.866C102.734 12.526 102.25 13.428 102.074 14.572H110.819C110.643 13.45 110.159 12.559 109.367 11.899C108.575 11.217 107.607 10.876 106.463 10.876ZM137.182 0.513999V25H132.265V22.954C130.989 24.494 129.141 25.264 126.721 25.264C125.049 25.264 123.531 24.89 122.167 24.142C120.825 23.394 119.769 22.327 118.999 20.941C118.229 19.555 117.844 17.949 117.844 16.123C117.844 14.297 118.229 12.691 118.999 11.305C119.769 9.919 120.825 8.852 122.167 8.104C123.531 7.356 125.049 6.982 126.721 6.982C128.987 6.982 130.758 7.697 132.034 9.127V0.513999H137.182ZM127.612 21.04C128.91 21.04 129.988 20.6 130.846 19.72C131.704 18.818 132.133 17.619 132.133 16.123C132.133 14.627 131.704 13.439 130.846 12.559C129.988 11.657 128.91 11.206 127.612 11.206C126.292 11.206 125.203 11.657 124.345 12.559C123.487 13.439 123.058 14.627 123.058 16.123C123.058 17.619 123.487 18.818 124.345 19.72C125.203 20.6 126.292 21.04 127.612 21.04ZM146.863 9.589C147.479 8.731 148.304 8.082 149.338 7.642C150.394 7.202 151.604 6.982 152.968 6.982V11.734C152.396 11.69 152.011 11.668 151.813 11.668C150.339 11.668 149.184 12.086 148.348 12.922C147.512 13.736 147.094 14.968 147.094 16.618V25H141.946V7.246H146.863V9.589Z" fill="#2D5389"/>
</svg>
