<svg width="296" height="49" viewBox="0 0 296 49" fill="none" xmlns="http://www.w3.org/2000/svg">
<path d="M46.824 3.2V48H42.28V12.16L24.68 42.304H22.44L4.84 12.352V48H0.296V3.2H4.2L23.656 36.416L42.92 3.2H46.824ZM74.477 48.32C71.2343 48.32 68.3117 47.5947 65.709 46.144C63.1063 44.6507 61.0583 42.6027 59.565 40C58.0717 37.3973 57.325 34.4533 57.325 31.168C57.325 27.8827 58.0717 24.9387 59.565 22.336C61.0583 19.7333 63.1063 17.7067 65.709 16.256C68.3117 14.8053 71.2343 14.08 74.477 14.08C77.7197 14.08 80.6423 14.8053 83.245 16.256C85.8477 17.7067 87.8743 19.7333 89.325 22.336C90.8183 24.9387 91.565 27.8827 91.565 31.168C91.565 34.4533 90.8183 37.3973 89.325 40C87.8743 42.6027 85.8477 44.6507 83.245 46.144C80.6423 47.5947 77.7197 48.32 74.477 48.32ZM74.477 44.288C76.8663 44.288 78.9997 43.7547 80.877 42.688C82.797 41.5787 84.2903 40.0213 85.357 38.016C86.4237 36.0107 86.957 33.728 86.957 31.168C86.957 28.608 86.4237 26.3253 85.357 24.32C84.2903 22.3147 82.797 20.7787 80.877 19.712C78.9997 18.6027 76.8663 18.048 74.477 18.048C72.0877 18.048 69.933 18.6027 68.013 19.712C66.1357 20.7787 64.6423 22.3147 63.533 24.32C62.4663 26.3253 61.933 28.608 61.933 31.168C61.933 33.728 62.4663 36.0107 63.533 38.016C64.6423 40.0213 66.1357 41.5787 68.013 42.688C69.933 43.7547 72.0877 44.288 74.477 44.288ZM101.277 14.336H105.821V41.088L128.285 14.336H132.317V48H127.773V21.248L105.373 48H101.277V14.336ZM116.573 9.472C113.671 9.472 111.367 8.74666 109.661 7.296C107.954 5.84533 107.079 3.79733 107.037 1.152H110.301C110.343 2.816 110.941 4.16 112.093 5.184C113.245 6.16533 114.738 6.656 116.573 6.656C118.407 6.656 119.901 6.16533 121.053 5.184C122.247 4.16 122.866 2.816 122.909 1.152H126.173C126.13 3.79733 125.234 5.84533 123.485 7.296C121.778 8.74666 119.474 9.472 116.573 9.472Z" fill="#48C8B7"/>
<path d="M160.507 30.4L154.491 36.672V48H144.187V3.2H154.491V24.128L174.331 3.2H185.851L167.291 23.168L186.939 48H174.843L160.507 30.4ZM223.149 30.912C223.149 31.04 223.085 31.936 222.957 33.6H196.909C197.378 35.7333 198.487 37.4187 200.237 38.656C201.986 39.8933 204.162 40.512 206.765 40.512C208.557 40.512 210.135 40.256 211.501 39.744C212.909 39.1893 214.21 38.336 215.405 37.184L220.717 42.944C217.474 46.656 212.738 48.512 206.509 48.512C202.626 48.512 199.191 47.7653 196.205 46.272C193.218 44.736 190.914 42.624 189.293 39.936C187.671 37.248 186.861 34.1973 186.861 30.784C186.861 27.4133 187.65 24.384 189.229 21.696C190.85 18.9653 193.047 16.8533 195.821 15.36C198.637 13.824 201.773 13.056 205.229 13.056C208.599 13.056 211.65 13.7813 214.381 15.232C217.111 16.6827 219.245 18.7733 220.781 21.504C222.359 24.192 223.149 27.328 223.149 30.912ZM205.293 20.608C203.031 20.608 201.133 21.248 199.597 22.528C198.061 23.808 197.122 25.5573 196.781 27.776H213.741C213.399 25.6 212.461 23.872 210.925 22.592C209.389 21.2693 207.511 20.608 205.293 20.608ZM264.868 0.511997V48H255.332V44.032C252.857 47.0187 249.273 48.512 244.58 48.512C241.337 48.512 238.393 47.7867 235.748 46.336C233.145 44.8853 231.097 42.816 229.604 40.128C228.11 37.44 227.364 34.3253 227.364 30.784C227.364 27.2427 228.11 24.128 229.604 21.44C231.097 18.752 233.145 16.6827 235.748 15.232C238.393 13.7813 241.337 13.056 244.58 13.056C248.974 13.056 252.409 14.4427 254.884 17.216V0.511997H264.868ZM246.308 40.32C248.825 40.32 250.916 39.4667 252.58 37.76C254.244 36.0107 255.076 33.6853 255.076 30.784C255.076 27.8827 254.244 25.5787 252.58 23.872C250.916 22.1227 248.825 21.248 246.308 21.248C243.748 21.248 241.636 22.1227 239.972 23.872C238.308 25.5787 237.476 27.8827 237.476 30.784C237.476 33.6853 238.308 36.0107 239.972 37.76C241.636 39.4667 243.748 40.32 246.308 40.32ZM283.644 18.112C284.839 16.448 286.439 15.1893 288.444 14.336C290.492 13.4827 292.839 13.056 295.484 13.056V22.272C294.375 22.1867 293.628 22.144 293.244 22.144C290.385 22.144 288.145 22.9547 286.524 24.576C284.903 26.1547 284.092 28.544 284.092 31.744V48H274.108V13.568H283.644V18.112Z" fill="#2D5389"/>
</svg>
