<svg width="9" height="12" viewBox="0 0 9 12" fill="none" xmlns="http://www.w3.org/2000/svg">
<path d="M3.90919 8.30421L3.75148 9.72241C3.74367 9.79296 3.76636 9.86377 3.81373 9.91676C3.86109 9.96973 3.92897 10 4.00001 10H5.00002C5.07106 10 5.13893 9.96973 5.1863 9.91676C5.23366 9.86379 5.25637 9.79298 5.24855 9.72241L5.09084 8.30421C5.34694 8.11793 5.50001 7.82325 5.50001 7.5C5.50001 6.94849 5.05153 6.49999 4.5 6.49999C3.94847 6.49999 3.49999 6.94849 3.49999 7.5C3.49999 7.82325 3.65309 8.11793 3.90919 8.30421ZM4.5 7.00001C4.77562 7.00001 4.99999 7.22438 4.99999 7.5C4.99999 7.69165 4.8911 7.86328 4.71581 7.94824C4.62035 7.99463 4.56445 8.09571 4.57617 8.20092L4.72071 9.49999H4.27931L4.42385 8.20092C4.43557 8.09569 4.37967 7.99463 4.28421 7.94824C4.10892 7.86328 4.00003 7.69165 4.00003 7.5C4.00001 7.22438 4.22437 7.00001 4.5 7.00001Z" fill="#142E55"/>
<path d="M8.74999 4.5H7.99999V3.49999C7.99999 1.57008 6.42994 0 4.5 0C2.57006 0 1.00001 1.57008 1.00001 3.49999V4.5H0.250008C0.11182 4.5 0 4.61182 0 4.75001V11C0 11.5515 0.448477 12 1.00001 12H8.00002C8.55152 12 9 11.5515 9 11V4.75001C9 4.61182 8.88818 4.5 8.74999 4.5ZM1.5 3.49999C1.5 1.8457 2.84571 0.499992 4.5 0.499992C6.15429 0.499992 7.5 1.8457 7.5 3.49999V4.5H7.00001V3.49999C7.00001 2.12156 5.87843 0.999984 4.5 0.999984C3.12157 0.999984 1.99999 2.12159 1.99999 3.49999V4.5H1.5V3.49999ZM6.49999 3.49999V4.5H2.50001V3.49999C2.50001 2.39721 3.39722 1.5 4.5 1.5C5.60278 1.5 6.49999 2.39721 6.49999 3.49999ZM8.50001 11C8.50001 11.2756 8.27564 11.5 8.00002 11.5H1.00001C0.724383 11.5 0.500016 11.2756 0.500016 11V4.99999H8.50001V11Z" fill="#142E55"/>
</svg>
