<svg width="21" height="21" viewBox="0 0 21 21" fill="none" xmlns="http://www.w3.org/2000/svg">
<path d="M20.4981 3.9846C20.105 3.53984 19.5446 3.29487 18.9202 3.29487H3.82695L3.67504 2.16694C3.51132 0.951851 2.65711 0 1.73026 0H0.621243C0.278103 0 0 0.275414 0 0.615234C0 0.955055 0.278103 1.23047 0.621243 1.23047H1.73026C1.92957 1.23047 2.35166 1.64783 2.44339 2.32956L4.2217 15.5382C4.3 16.1204 4.60205 16.6655 5.07219 17.0731C5.42083 17.3754 5.83289 17.5765 6.26452 17.6606C6.08866 17.9809 5.98868 18.3478 5.98868 18.7373C5.98868 19.985 7.01373 21 8.27353 21C9.53333 21 10.5584 19.985 10.5584 18.7373C10.5584 18.3655 10.4668 18.0148 10.3057 17.7051H13.561C13.3999 18.0148 13.3083 18.3655 13.3083 18.7373C13.3083 19.985 14.3334 21 15.5932 21C16.853 21 17.878 19.985 17.878 18.7373C17.878 18.3655 17.7865 18.0148 17.6253 17.7051H19.253C19.596 17.7051 19.8743 17.4296 19.8743 17.0899C19.8743 16.7501 19.596 16.4747 19.253 16.4747H6.72091C6.1139 16.4747 5.53343 15.9713 5.45318 15.3754L5.32327 14.4101H10.1585C10.1586 14.4101 10.1588 14.4103 10.1589 14.4103C10.1591 14.4103 10.1593 14.4101 10.1596 14.4101H14.1507C14.1509 14.4101 14.1511 14.4103 14.1514 14.4103C14.1516 14.4103 14.1516 14.4101 14.1517 14.4101H17.5894C18.1825 14.4101 18.768 14.1856 19.2381 13.7782C19.7083 13.3706 20.0103 12.8254 20.0886 12.2432L20.9797 5.62459C21.0622 5.01176 20.8912 4.42937 20.4981 3.9846ZM9.31589 18.7373C9.31589 19.3065 8.84834 19.7695 8.27353 19.7695C7.69888 19.7695 7.23117 19.3065 7.23117 18.7373C7.23117 18.1682 7.69888 17.7051 8.27353 17.7051C8.84834 17.7051 9.31589 18.1682 9.31589 18.7373ZM16.6356 18.7373C16.6356 19.3065 16.168 19.7695 15.5932 19.7695C15.0184 19.7695 14.5508 19.3065 14.5508 18.7373C14.5508 18.1682 15.0184 17.7051 15.5932 17.7051C16.168 17.7051 16.6356 18.1682 16.6356 18.7373ZM19.5632 4.79514C19.717 4.96914 19.7827 5.20578 19.7481 5.46181L19.3745 8.23725H15.1475L15.3973 4.52534H18.9202C19.1812 4.52534 19.4095 4.62115 19.5632 4.79514ZM10.7407 13.1796L10.4908 9.46772H13.8194L13.5695 13.1796H10.7407ZM10.4079 8.23725L10.1581 4.52534H14.152L13.9022 8.23725H10.4079ZM8.91289 4.52534L9.16268 8.23725H4.4922L3.99246 4.52534H8.91289ZM4.65786 9.46772H9.24552L9.49547 13.1796H5.15761L4.65786 9.46772ZM17.5894 13.1796H14.8147L15.0647 9.46772H19.2089L18.8571 12.0805C18.7769 12.6764 18.1963 13.1796 17.5894 13.1796Z" fill="#2D5389"/>
</svg>
