<svg width="13" height="13" viewBox="0 0 13 13" fill="none" xmlns="http://www.w3.org/2000/svg">
<path d="M11.6321 3.42059C11.3628 3.55085 11.2502 3.87485 11.3804 4.14396C11.7363 4.8791 11.9167 5.6715 11.9167 6.5C11.9167 9.4867 9.4867 11.9167 6.5 11.9167C3.5133 11.9167 1.08333 9.4867 1.08333 6.5C1.08333 3.5133 3.5133 1.08333 6.5 1.08333C7.73766 1.08333 8.90034 1.48747 9.86267 2.25196C10.0961 2.43829 10.4374 2.39928 10.6237 2.16508C10.8101 1.93101 10.771 1.59009 10.5367 1.40402C9.39744 0.498555 7.9638 0 6.5 0C2.91609 0 0 2.91609 0 6.5C0 10.0839 2.91609 13 6.5 13C10.0839 13 13 10.0839 13 6.5C13 5.50686 12.7831 4.5551 12.3554 3.67225C12.2255 3.40248 11.9004 3.29007 11.6321 3.42059Z" fill="#48C8B7"/>
<path d="M6.50005 2.16667C6.20105 2.16667 5.95838 2.40934 5.95838 2.70834V6.50001C5.95838 6.79901 6.20105 7.04167 6.50005 7.04167H9.20838C9.50739 7.04167 9.75005 6.79901 9.75005 6.50001C9.75005 6.20101 9.50739 5.95834 9.20838 5.95834H7.04172V2.70834C7.04172 2.40934 6.79905 2.16667 6.50005 2.16667Z" fill="#48C8B7"/>
</svg>
