<svg width="15" height="15" viewBox="0 0 15 15" fill="none" xmlns="http://www.w3.org/2000/svg">
<path d="M11.2529 1.3534L7.36385 5.24245L3.4748 1.3534C2.88902 0.767616 1.93927 0.767616 1.35348 1.3534C0.767697 1.93919 0.767697 2.88894 1.35348 3.47472L5.24253 7.36377L1.3534 11.2529C0.767616 11.8387 0.767616 12.7884 1.3534 13.3742C1.93919 13.96 2.88894 13.96 3.47472 13.3742L7.36385 9.48509L11.253 13.3742C11.8388 13.96 12.7885 13.96 13.3743 13.3742C13.9601 12.7884 13.9601 11.8387 13.3743 11.2529L9.48517 7.36377L13.3742 3.47472C13.96 2.88894 13.96 1.93919 13.3742 1.3534C12.7884 0.767616 11.8387 0.767616 11.2529 1.3534Z" fill="#2D5389" stroke="white"/>
</svg>
