<svg width="14" height="14" viewBox="0 0 14 14" fill="none" xmlns="http://www.w3.org/2000/svg">
<path d="M10.9248 0.941815L7 4.86669L3.07515 0.941815C2.48607 0.352728 1.53097 0.352728 0.941892 0.941815C0.352811 1.5309 0.352811 2.48599 0.941892 3.07508L4.86675 6.99996L0.94181 10.9249C0.35273 11.514 0.35273 12.4691 0.94181 13.0582C1.53089 13.6473 2.48599 13.6473 3.07507 13.0582L7 9.13323L10.9249 13.0582C11.514 13.6473 12.4691 13.6473 13.0582 13.0582C13.6473 12.4691 13.6473 11.514 13.0582 10.9249L9.13325 6.99996L13.0581 3.07508C13.6472 2.48599 13.6472 1.5309 13.0581 0.941815C12.469 0.352728 11.5139 0.352729 10.9248 0.941815Z" fill="#142E55" stroke="white"/>
</svg>
