<svg width="28" height="28" viewBox="0 0 28 28" fill="none" xmlns="http://www.w3.org/2000/svg">
<circle cx="14" cy="14" r="14" fill="#E8E8E8"/>
<path d="M16.5 11C16.3721 11 16.2441 11.0488 16.1465 11.1465L11.1465 16.1462C10.9512 16.3415 10.9512 16.6579 11.1465 16.8531C11.3418 17.0483 11.6583 17.0484 11.8535 16.8531L16.8535 11.8535C17.0488 11.6581 17.0488 11.3418 16.8535 11.1465C16.7559 11.0488 16.628 11 16.5 11Z" fill="black"/>
<path d="M11.5 11.0004C11.372 11.0004 11.2441 11.0492 11.1465 11.1469C10.9512 11.3422 10.9512 11.6586 11.1465 11.8539L16.1465 16.8535C16.3419 17.0488 16.6582 17.0488 16.8535 16.8535C17.0487 16.6583 17.0488 16.3418 16.8535 16.1466L11.8535 11.1469C11.7559 11.0492 11.6279 11.0004 11.5 11.0004Z" fill="black"/>
</svg>
