<svg width="7" height="16" viewBox="0 0 7 16" fill="none" xmlns="http://www.w3.org/2000/svg">
<path d="M1.51302 3.09869C1.51302 3.5019 1.51302 5.30158 1.51302 5.30158H0V7.99527H1.51302V16H4.62107V7.9955H6.70671C6.70671 7.9955 6.90204 6.70389 6.99672 5.29164C6.72526 5.29164 4.63282 5.29164 4.63282 5.29164C4.63282 5.29164 4.63282 3.72454 4.63282 3.44985C4.63282 3.17458 4.97169 2.80429 5.30662 2.80429C5.64092 2.80429 6.3465 2.80429 7 2.80429C7 2.43754 7 1.17033 7 9.62229e-09C6.12759 9.62229e-09 5.13507 9.62229e-09 4.69758 9.62229e-09C1.43619 -0.000185989 1.51302 2.69619 1.51302 3.09869Z" fill="#5C78A1"/>
</svg>
