<svg width="10" height="10" viewBox="0 0 10 10" fill="none" xmlns="http://www.w3.org/2000/svg">
<circle cx="5" cy="5" r="5" fill="#0063D7"/>
<path d="M6.66669 7C6.58139 7 6.49608 6.96746 6.431 6.9023L3.09768 3.569C2.96744 3.43876 2.96744 3.22785 3.09768 3.09768C3.22785 2.96751 3.43884 2.96744 3.569 3.09768L6.90232 6.43098C7.03256 6.56122 7.03256 6.77214 6.90232 6.9023C6.83724 6.96746 6.752 7 6.66669 7Z" fill="white"/>
<path d="M3.33331 7C3.248 7 3.16276 6.96746 3.09768 6.9023C2.96744 6.77214 2.96744 6.56115 3.09768 6.43098L6.431 3.09768C6.56123 2.96744 6.77215 2.96744 6.90232 3.09768C7.03249 3.22785 7.03256 3.43883 6.90232 3.569L3.569 6.9023C3.50392 6.96746 3.41861 7 3.33331 7Z" fill="white"/>
</svg>
