<svg width="23" height="21" viewBox="0 0 23 21" fill="none" xmlns="http://www.w3.org/2000/svg">
<path d="M20.6041 16.2272H15.8125C15.0198 16.2272 14.375 16.8695 14.375 17.659C14.375 18.4486 15.0198 19.0909 15.8125 19.0909H19.1666C19.4315 19.0909 19.6458 18.8774 19.6458 18.6136C19.6458 18.3498 19.4315 18.1363 19.1666 18.1363H15.8125C15.5481 18.1363 15.3333 17.9224 15.3333 17.659C15.3333 17.3957 15.5481 17.1817 15.8125 17.1817H20.6041C21.3968 17.1817 22.0416 17.824 22.0416 18.6135C22.0416 19.4031 21.3968 20.0453 20.6041 20.0453H15.8125C14.4915 20.0453 13.4167 18.9747 13.4167 17.659C13.4167 16.3433 14.4915 15.2727 15.8125 15.2727H21.0833C21.3481 15.2727 21.5625 15.0592 21.5625 14.7954C21.5625 14.5316 21.3481 14.3181 21.0833 14.3181V3.8182C21.0833 2.76532 20.2237 1.9091 19.1666 1.9091H10.2609L8.48456 0.139825C8.39471 0.0503372 8.27307 0 8.14576 0H1.91668C0.859578 0 0 0.856224 0 1.9091V15.2727C0 16.3256 0.859578 17.1818 1.91668 17.1818H12.5068C12.4839 17.339 12.4583 17.4956 12.4583 17.6591C12.4583 19.5011 13.9632 21 15.8125 21H20.6042C21.9252 21 23 19.9294 23 18.6137C23 17.2979 21.9251 16.2272 20.6041 16.2272ZM1.91668 16.2272C1.3884 16.2272 0.958361 15.7989 0.958361 15.2727V1.9091C0.958361 1.38291 1.3884 0.954572 1.91668 0.954572H7.94743L9.72373 2.72385C9.81357 2.81333 9.93522 2.86367 10.0625 2.86367H19.1667C19.695 2.86367 20.125 3.29201 20.125 3.8182V14.3182H15.8125C14.4796 14.3182 13.3353 15.1027 12.7948 16.2273H1.91668V16.2272Z" fill="#8B8EA1"/>
</svg>
