<svg width="17" height="17" viewBox="0 0 17 17" fill="none" xmlns="http://www.w3.org/2000/svg">
<path d="M0.5 11V10.5H1H2.66667H3.16667V11V13.8333H6H6.5V14.3333V16V16.5H6H2.66667C1.47386 16.5 0.5 15.5261 0.5 14.3333V11ZM3.16667 6V6.5H2.66667H1H0.5V6V2.66667C0.5 1.47386 1.47386 0.499999 2.66667 0.499999H6H6.5V0.999999V2.66667V3.16667H6H3.16667V6ZM13.8333 6V3.16667H11H10.5V2.66667V0.999999V0.499999H11H14.3333C15.5261 0.499999 16.5 1.47386 16.5 2.66667V6V6.5H16H14.3333H13.8333V6ZM11 16.5H10.5V16V14.3333V13.8333H11H13.8333V11V10.5H14.3333H16H16.5V11V14.3333C16.5 15.5261 15.5261 16.5 14.3333 16.5H11Z" fill="#142E55" stroke="white"/>
</svg>
