<svg width="28" height="28" viewBox="0 0 28 28" fill="none" xmlns="http://www.w3.org/2000/svg">
<path d="M10.5908 10.4453V9.42711H9.82955V8.50409H10.5908V7.76187H9.82955V6.58194H10.5908V3.65112H12.7604C13.6358 3.65112 14.2733 3.82875 14.673 4.184C15.079 4.53925 15.282 5.02772 15.282 5.64941C15.282 6.01734 15.1995 6.36308 15.0346 6.68661C14.8697 7.01014 14.5937 7.27023 14.2067 7.46689C13.8261 7.66354 13.3059 7.76187 12.6462 7.76187H12.0277V8.50409H13.4931V9.42711H12.0277V10.4453H10.5908ZM12.0277 6.58194H12.5034C12.9094 6.58194 13.2298 6.51215 13.4645 6.37259C13.7056 6.23303 13.8261 6.00783 13.8261 5.69698C13.8261 5.1197 13.4455 4.83106 12.6842 4.83106H12.0277V6.58194Z" fill="white"/>
<path d="M26.7217 18.1918C25.9333 17.7698 24.9811 17.8158 24.237 18.3118L20.3312 20.9157C20.2063 19.6749 19.156 18.7031 17.8828 18.7031H13.7812L13.2462 18.3018C12.1806 17.5026 10.8602 17.0625 9.5282 17.0625C8.40536 17.0625 7.30291 17.3679 6.34003 17.9455L6.12495 18.0746V17.3359C6.12495 16.8829 5.75766 16.5156 5.30463 16.5156H0.820312C0.367281 16.5156 0 16.8829 0 17.3359V27.1797C0 27.6327 0.367281 28 0.820312 28H5.30469C5.75772 28 6.125 27.6327 6.125 27.1797V26.9062H19.0454C19.8836 26.9062 20.6909 26.6541 21.38 26.1769L26.9572 22.3157C27.6102 21.8637 28 21.1199 28 20.3257C28 19.4315 27.5102 18.6137 26.7217 18.1918ZM4.48438 26.3594H1.64062V18.1562H4.48438V26.3594ZM26.0234 20.9668L20.4461 24.828C20.0326 25.1143 19.5483 25.2656 19.0454 25.2656H6.125V19.9879L7.18419 19.3524C7.89212 18.9277 8.70264 18.7031 9.5282 18.7031C10.5075 18.7031 11.4783 19.0267 12.2618 19.6143L13.0156 20.1797C13.1576 20.2862 13.3304 20.3438 13.5078 20.3438H17.8828C18.3351 20.3438 18.7031 20.7117 18.7031 21.1641C18.7031 21.6164 18.3351 21.9844 17.8828 21.9844H11.8672C11.4142 21.9844 11.0469 22.3517 11.0469 22.8047C11.0469 23.2577 11.4142 23.625 11.8672 23.625H18.3142C18.91 23.625 19.4869 23.4504 19.9827 23.1199L25.1471 19.6769C25.4977 19.4431 25.8237 19.5719 25.9476 19.6382C26.0714 19.7045 26.3594 19.9042 26.3594 20.3257C26.3594 20.5815 26.2338 20.8212 26.0234 20.9668Z" fill="white"/>
<path d="M12.4141 13.6719C15.8015 13.6719 18.6208 11.1951 19.1575 7.95747C19.8446 8.72758 20.4002 9.611 20.7923 10.5639H20.0703C19.752 10.5639 19.4625 10.748 19.3274 11.0363C19.1924 11.3245 19.2364 11.6648 19.4401 11.9094L22.9948 16.175C23.1507 16.362 23.3815 16.4701 23.625 16.4701C23.8685 16.4701 24.0994 16.362 24.2552 16.175L27.8099 11.9094C28.0136 11.6648 28.0575 11.3245 27.9226 11.0363C27.7876 10.748 27.498 10.5639 27.1797 10.5639H25.9856C25.2606 7.70044 23.6261 5.10912 21.334 3.21098C18.8338 1.14034 15.6659 0 12.4141 0C8.64473 0 5.57812 3.0666 5.57812 6.83594C5.57812 10.6053 8.64473 13.6719 12.4141 13.6719ZM18.0902 3.02209C18.8688 3.42431 19.6063 3.91027 20.2876 4.47459C22.4658 6.2784 23.9713 8.78987 24.527 11.5463C24.6041 11.9292 24.9406 12.2046 25.3311 12.2046H25.4283L23.625 14.3684L21.8217 12.2045H21.9376C22.1934 12.2045 22.4347 12.0851 22.5898 11.8817C22.745 11.6784 22.7964 11.4142 22.7288 11.1674C22.1425 9.02759 20.8786 7.09477 19.1537 5.68952C18.9889 4.71767 18.618 3.81451 18.0881 3.0275L18.0902 3.02209ZM12.4141 1.64062C15.2788 1.64062 17.6094 3.97124 17.6094 6.83594C17.6094 9.70063 15.2788 12.0312 12.4141 12.0312C9.54937 12.0312 7.21875 9.70063 7.21875 6.83594C7.21875 3.97124 9.54937 1.64062 12.4141 1.64062Z" fill="white"/>
</svg>
