<svg width="28" height="28" viewBox="0 0 28 28" fill="none" xmlns="http://www.w3.org/2000/svg">
<path d="M26.0011 14.0657C25.8706 13.7018 25.4755 13.5151 25.1205 13.6486L18.6884 16.0507L23.8877 10.7538C24.0165 10.6232 24.0884 10.4448 24.0884 10.2587C24.0884 10.0734 24.0164 9.89523 23.8877 9.76353L19.8658 5.66058C19.5976 5.38715 19.1631 5.38715 18.8949 5.66058L13.7955 10.8561L16.6556 3.9391C16.7262 3.76799 16.7271 3.57518 16.6591 3.40338C16.5903 3.23158 16.4575 3.09443 16.2895 3.02262L11.0475 0.769049C10.6977 0.617037 10.295 0.78642 10.1479 1.14204L7.32339 7.97343V0.7C7.32339 0.313531 7.01588 0 6.63683 0H0.686568C0.307515 0 0 0.313531 0 0.7V27.3C0 27.6865 0.307515 28 0.686568 28H6.63683C6.72065 28 6.80025 27.9822 6.87441 27.9545C6.94866 27.9818 7.02597 28 7.1064 28C7.18532 28 7.26482 27.9863 7.34263 27.9571L27.5494 20.4094C27.9052 20.2763 28.0884 19.8744 27.9579 19.5116L26.0011 14.0657ZM1.37314 26.6V1.4H5.95026V26.6001L1.37314 26.6ZM15.1237 4.04047L7.32339 22.9054V11.5777L11.1466 2.3316L15.1237 4.04047ZM12.3815 14.2758L19.3795 7.14562L22.4311 10.2583L7.93622 25.0268L12.3815 14.2758ZM9.11627 25.8038L16.378 18.4051L24.948 15.2041L26.4325 19.3357L9.11627 25.8038Z" fill="white"/>
<path d="M3.6617 23.722C3.63152 23.722 3.60313 23.7289 3.57389 23.7308C3.31664 23.7545 3.08914 23.8753 2.92614 24.0606C2.81866 24.1828 2.73932 24.3314 2.7 24.4964C2.68211 24.5729 2.66982 24.6513 2.66982 24.7333C2.66982 24.9557 2.74221 25.1589 2.86113 25.3257C3.04141 25.5782 3.33155 25.7441 3.6617 25.7441C3.70967 25.7441 3.75553 25.7368 3.80181 25.7295C3.99981 25.7008 4.17832 25.6133 4.3203 25.4834C4.38887 25.4205 4.44939 25.3494 4.4988 25.2691C4.58017 25.1379 4.62976 24.9857 4.64383 24.8225C4.64654 24.7924 4.65256 24.7632 4.65256 24.7327C4.65358 24.1745 4.20951 23.722 3.6617 23.722Z" fill="white"/>
</svg>
