<svg width="28" height="28" viewBox="0 0 28 28" fill="none" xmlns="http://www.w3.org/2000/svg">
<path d="M19.058 24.2744C18.9138 24.2744 18.7732 24.3339 18.6709 24.4372C18.5692 24.5407 18.5107 24.684 18.5107 24.83C18.5107 24.9763 18.5692 25.1196 18.6709 25.2229C18.7732 25.3262 18.9138 25.3856 19.058 25.3856C19.2019 25.3856 19.3425 25.3262 19.4446 25.2229C19.5463 25.1196 19.6044 24.9763 19.6044 24.83C19.6044 24.684 19.5463 24.5407 19.4446 24.4372C19.3425 24.3339 19.2019 24.2744 19.058 24.2744Z" fill="white"/>
<path d="M27.9977 11.3608C28.018 11.1368 27.9033 10.9224 27.7072 10.818L22.5847 8.08995L27.6147 6.51063C27.8261 6.44422 27.9774 6.25475 27.9977 6.03056C28.018 5.80637 27.9033 5.59216 27.7072 5.48777L17.522 0.0635563C17.3941 -0.00459092 17.2445 -0.0186979 17.1065 0.0249251L0.385417 5.27508C0.17393 5.34127 0.022685 5.53096 0.00239082 5.75493C-0.0179034 5.97912 0.0970259 6.19333 0.293132 6.29794L3.80979 8.1709C4.365 8.4665 4.9311 8.73236 5.50703 8.96892L0.382853 10.606C0.172007 10.6735 0.0218305 10.8629 0.00217719 11.0865C-0.0174761 11.3102 0.0972395 11.5238 0.293132 11.628L5.41538 14.356L0.385417 15.9353C0.17393 16.0018 0.022685 16.1912 0.00239082 16.4154C-0.0179034 16.6396 0.0970259 16.8538 0.293132 16.9582L5.67964 19.8269L0.385417 21.4891C0.17393 21.5555 0.022685 21.745 0.00239082 21.9692C-0.0179034 22.1932 0.0970259 22.4076 0.293132 22.512L10.4782 27.9364C10.5573 27.9785 10.6444 28 10.732 28C10.7863 28 10.8408 27.9918 10.8935 27.9753L17.1298 26.0172C17.4184 25.9265 17.5799 25.6155 17.4909 25.3223C17.4018 25.0291 17.0952 24.8646 16.8068 24.9555L10.7861 26.8458L1.97499 22.1532L7.00474 20.5739C7.02033 20.5689 7.0355 20.5633 7.05046 20.557L10.4782 22.3826C10.5573 22.4247 10.6444 22.446 10.732 22.446C10.7863 22.446 10.8408 22.438 10.8935 22.4213L20.8449 19.2967C20.8633 19.3097 20.8825 19.3221 20.9031 19.3329L26.0253 22.061L20.9921 23.6414C20.7035 23.7319 20.542 24.0431 20.6311 24.3363C20.7037 24.5748 20.9199 24.7281 21.1534 24.7281C21.2068 24.7281 21.2613 24.7198 21.3151 24.7031L27.6147 22.7249C27.8264 22.6587 27.9776 22.469 27.9977 22.245C28.018 22.0208 27.9033 21.8066 27.7072 21.702L22.3207 18.8333L27.6147 17.1711C27.8264 17.1047 27.9776 16.9152 27.9977 16.691C28.018 16.4671 27.9033 16.2526 27.7072 16.1482L22.5847 13.4202L27.6147 11.8409C27.8261 11.7745 27.9774 11.585 27.9977 11.3608ZM22.448 9.27168L18.1341 13.6546L12.6798 15.3672L18.6162 9.33613L21.1028 8.55526L22.448 9.27168ZM8.30122 8.72628C9.5413 8.47887 10.6763 7.86315 11.5733 6.94447C12.2485 7.91524 13.1577 8.67636 14.2205 9.16555C12.2323 9.36239 10.2354 9.21395 8.30122 8.72628ZM10.7523 10.2668L7.08634 13.9914L4.79866 12.773L7.78895 9.73503C8.75623 9.99134 9.74552 10.1693 10.7523 10.2668ZM12.2165 10.3507C12.328 10.3529 12.4393 10.3547 12.5506 10.3547C13.8571 10.3547 15.1545 10.2158 16.4326 9.93969L12.2159 14.2236C12.1716 14.2683 12.1372 14.3191 12.1112 14.3732L10.6297 15.8785L8.10105 14.5318L12.2165 10.3507ZM1.97477 5.93897L17.214 1.15413L26.0253 5.84674L20.9962 7.42584C20.9947 7.42628 20.9934 7.42671 20.9919 7.42714L17.7639 8.44067C17.3633 8.56655 16.9606 8.6768 16.5563 8.77316L15.4089 8.43199C13.999 8.01291 12.8339 7.06101 12.1281 5.75211C12.0398 5.58825 11.8762 5.48039 11.6929 5.4652C11.5094 5.44979 11.331 5.52966 11.2176 5.6768C10.2099 6.98657 8.69343 7.73793 7.05686 7.73793H5.44743C5.06654 7.56821 4.68949 7.38482 4.31758 7.18668L1.97477 5.93897ZM6.00691 9.97398L3.78373 12.2326L1.96665 11.2649L6.00691 9.97398ZM26.0253 16.507L10.7861 21.2918L1.97477 16.5992L6.78919 15.0876L10.478 17.0522C10.5571 17.0943 10.6444 17.1158 10.732 17.1158C10.7863 17.1158 10.8408 17.1077 10.8935 17.091L18.579 14.6779C18.5803 14.6774 18.5816 14.677 18.5831 14.6766L21.1026 13.8855L26.0253 16.507ZM20.9949 12.7563C20.9943 12.7565 20.9936 12.7567 20.993 12.7569L20.3728 12.9516L23.4629 9.81229L26.0253 11.177L20.9949 12.7563Z" fill="white"/>
</svg>
