<svg width="28" height="28" viewBox="0 0 28 28" fill="none" xmlns="http://www.w3.org/2000/svg">
<path d="M26.65 14.3627C26.5326 14.1322 26.5326 13.8678 26.65 13.6374L27.7383 11.501C28.3443 10.3115 27.8642 8.89377 26.6453 8.27324L24.4562 7.15872C24.22 7.03852 24.0581 6.82459 24.0119 6.57199L23.5838 4.2298C23.3454 2.92574 22.0882 2.04944 20.7222 2.23488L18.2685 2.56792C18.0037 2.6038 17.7418 2.5221 17.5497 2.34376L15.7686 0.69047C14.7768 -0.230129 13.2232 -0.230184 12.2315 0.69047L10.4503 2.34393C10.2582 2.52232 9.99628 2.60385 9.73149 2.56809L7.27776 2.23505C5.91134 2.04949 4.65464 2.9259 4.41624 4.22997L3.98811 6.57204C3.94188 6.8247 3.77997 7.03858 3.54384 7.15883L1.35473 8.27335C0.135872 8.89383 -0.344239 10.3117 0.261713 11.5012L1.35 13.6375C1.46741 13.868 1.46741 14.1323 1.35 14.3628L0.261656 16.4991C-0.344296 17.6886 0.135815 19.1063 1.35467 19.7269L3.54379 20.8414C3.77997 20.9616 3.94188 21.1755 3.98811 21.4281L4.41624 23.7703C4.63327 24.9574 5.69414 25.79 6.9134 25.7899C7.03348 25.7899 7.15534 25.7818 7.27781 25.7652L9.73155 25.4321C9.99617 25.3961 10.2582 25.4779 10.4504 25.6563L12.2315 27.3096C12.7275 27.7699 13.3636 28.0001 14 28C14.6362 27.9999 15.2728 27.7698 15.7685 27.3096L17.5497 25.6563C17.7418 25.4779 18.0038 25.3965 18.2685 25.4321L20.7222 25.7652C22.0888 25.9507 23.3454 25.0743 23.5838 23.7702L24.012 21.4282C24.0582 21.1755 24.2201 20.9616 24.4562 20.8414L26.6453 19.7269C27.8642 19.1064 28.3443 17.6885 27.7383 16.499L26.65 14.3627ZM25.8565 18.3002L23.6674 19.4148C22.9694 19.7702 22.4907 20.4022 22.3542 21.149L21.9261 23.4912C21.8455 23.9324 21.4204 24.2287 20.958 24.1661L18.5042 23.8331C17.7217 23.7267 16.9474 23.9684 16.3795 24.4955L14.5983 26.1487C14.2629 26.4601 13.7372 26.4601 13.4016 26.1487L11.6205 24.4954C11.1405 24.0499 10.513 23.8085 9.85796 23.8085C9.73793 23.8085 9.61693 23.8166 9.49576 23.833L7.04203 24.1661C6.58005 24.2287 6.15459 23.9323 6.07389 23.4911L5.6457 21.1489C5.50914 20.4021 5.03051 19.77 4.33252 19.4147L2.1434 18.3002C1.731 18.0902 1.56857 17.6106 1.77357 17.2081L2.86192 15.0718C3.20889 14.3906 3.20889 13.6094 2.86192 12.9282L1.77357 10.7918C1.56857 10.3894 1.731 9.90975 2.1434 9.6998L4.33252 8.58528C5.03046 8.22987 5.50914 7.5978 5.64564 6.851L6.07377 4.50887C6.15448 4.06766 6.57953 3.77125 7.04192 3.83393L9.49565 4.16697C10.2779 4.27322 11.0525 4.03167 11.6204 3.50455L13.4016 1.85125C13.737 1.53987 14.2627 1.53987 14.5983 1.85125L16.3794 3.50455C16.9473 4.03173 17.7218 4.27322 18.5041 4.16697L20.9579 3.83393C21.4199 3.7712 21.8454 4.06766 21.926 4.50887L22.3541 6.85105C22.4907 7.59786 22.9693 8.22998 23.6673 8.58528L25.8564 9.6998C26.2688 9.90975 26.4313 10.3894 26.2263 10.7918L25.1379 12.9281C24.7909 13.6093 24.7909 14.3906 25.1379 15.0717L26.2263 17.208C26.4313 17.6106 26.2689 18.0903 25.8565 18.3002Z" fill="white"/>
<path d="M20.1487 8.1001C19.8201 7.78478 19.2872 7.78478 18.9586 8.1001L7.85122 18.758C7.5226 19.0734 7.5226 19.5846 7.85122 19.8999C8.01554 20.0576 8.23091 20.1365 8.44623 20.1365C8.66155 20.1365 8.87699 20.0577 9.04124 19.8999L20.1486 9.24207C20.4773 8.92669 20.4773 8.41548 20.1487 8.1001Z" fill="white"/>
<path d="M10.6339 6.73293C8.93256 6.73293 7.54836 8.06111 7.54836 9.69362C7.54836 11.3261 8.93256 12.6543 10.6339 12.6543C12.3353 12.6543 13.7195 11.3261 13.7195 9.69362C13.7195 8.06111 12.3353 6.73293 10.6339 6.73293ZM10.6339 11.0394C9.86058 11.0394 9.23143 10.4357 9.23143 9.69357C9.23143 8.95152 9.86058 8.34783 10.6339 8.34783C11.4073 8.34783 12.0365 8.95152 12.0365 9.69357C12.0364 10.4357 11.4073 11.0394 10.6339 11.0394Z" fill="white"/>
<path d="M17.366 15.3458C15.6646 15.3458 14.2804 16.674 14.2804 18.3065C14.2804 19.939 15.6646 21.2672 17.366 21.2672C19.0673 21.2672 20.4515 19.939 20.4515 18.3065C20.4515 16.674 19.0673 15.3458 17.366 15.3458ZM17.366 19.6522C16.5926 19.6522 15.9634 19.0485 15.9634 18.3065C15.9634 17.5644 16.5926 16.9607 17.366 16.9607C18.1393 16.9607 18.7685 17.5644 18.7685 18.3065C18.7685 19.0485 18.1393 19.6522 17.366 19.6522Z" fill="white"/>
</svg>
