<svg width="9" height="24" viewBox="0 0 9 24" fill="none" xmlns="http://www.w3.org/2000/svg">
<path d="M5.89099 0C4.3301 0 3.06026 1.2383 3.06026 2.76042C3.06026 4.28255 4.33014 5.52084 5.89099 5.52084C7.45189 5.52084 8.72172 4.28255 8.72172 2.76042C8.72172 1.2383 7.45184 0 5.89099 0ZM5.89099 3.64936C5.38833 3.64936 4.97941 3.25059 4.97941 2.76042C4.97941 2.27025 5.38838 1.87148 5.89099 1.87148C6.39365 1.87148 6.80257 2.27025 6.80257 2.76042C6.80257 3.25059 6.39365 3.64936 5.89099 3.64936Z" fill="#0063D7"/>
<path d="M8.14803 19.847L6.63246 20.5792L8.27959 9.72469C8.28651 9.67936 8.28993 9.63356 8.28993 9.58772C8.28993 8.75555 7.87264 7.97799 7.17376 7.5076C6.48277 7.0426 5.60229 6.93811 4.81834 7.22808C4.78978 7.23867 4.76171 7.25053 4.73431 7.26375L0 9.54028L0.848754 11.2188L2.36644 10.489L0.719593 21.3383C0.712719 21.3836 0.709258 21.4294 0.709258 21.4752C0.709258 22.3047 1.12813 23.0817 1.8297 23.5539C2.26736 23.8485 2.77925 24 3.29436 24C3.59964 24 3.90613 23.9467 4.19887 23.8384C4.228 23.8276 4.25656 23.8155 4.28448 23.802L9 21.5239L8.14803 19.847ZM4.53891 21.5906L3.48341 22.1005C3.21591 22.1836 3.00171 22.0688 2.91976 22.0137C2.83746 21.9583 2.65259 21.8044 2.63053 21.5298L4.45912 9.48263L5.53317 8.96616C5.78664 8.88661 5.98536 8.98177 6.08351 9.04786C6.16465 9.10247 6.34688 9.25496 6.36851 9.53283L4.53891 21.5906Z" fill="#0063D7"/>
</svg>
