<svg width="16" height="16" viewBox="0 0 16 16" fill="none" xmlns="http://www.w3.org/2000/svg">
<path d="M15.9519 4.70169C15.9129 3.85013 15.7777 3.26858 15.58 2.75978C15.3791 2.22597 15.0642 1.74245 14.6572 1.34279C14.2577 0.935799 13.774 0.620732 13.2402 0.419803C12.7313 0.222169 12.1499 0.0870368 11.2984 0.0483402C10.4452 0.00927741 10.1726 0 8 0C5.82739 0 5.55481 0.00927741 4.70166 0.0480961C3.8501 0.0870368 3.26868 0.222292 2.75976 0.420047C2.22595 0.620855 1.74243 0.935799 1.34278 1.34279C0.935791 1.74232 0.620728 2.22584 0.4198 2.75966C0.222168 3.26858 0.0870361 3.85013 0.0483399 4.70157C0.00927734 5.55485 0 5.82731 0 7.99994C0 10.1727 0.00927734 10.4453 0.0483399 11.2984C0.0871582 12.1498 0.222412 12.7314 0.420166 13.2404C0.620971 13.774 0.935913 14.2577 1.3429 14.6572C1.74243 15.0642 2.22607 15.3791 2.75989 15.58C3.26868 15.7778 3.85022 15.9129 4.70178 15.9519C5.55505 15.9909 5.82751 16 8.00012 16C10.1727 16 10.4453 15.9909 11.2984 15.9519C12.15 15.9129 12.7315 15.7778 13.2404 15.58C14.3149 15.1644 15.1644 14.3149 15.58 13.2404C15.7778 12.7314 15.9129 12.1498 15.9519 11.2984C15.9907 10.4452 16 10.1727 16 8.00006C16 5.82731 15.9907 5.55485 15.9519 4.70169ZM14.5118 11.2328C14.4763 12.0129 14.346 12.4365 14.2364 12.7184C13.9672 13.4161 13.4159 13.9675 12.7181 14.2367C12.4362 14.3462 12.0127 14.4765 11.2327 14.5121C10.3893 14.5507 10.1362 14.5587 8 14.5587C5.86365 14.5587 5.61072 14.5507 4.76721 14.5121C3.9873 14.4765 3.56372 14.3462 3.28174 14.2367C2.93432 14.1084 2.61999 13.9039 2.36194 13.6382C2.09619 13.3801 1.89173 13.0659 1.76343 12.7184C1.65393 12.4365 1.52356 12.0129 1.48804 11.2328C1.44958 10.3894 1.4414 10.1363 1.4414 8.00018C1.4414 5.86393 1.44958 5.611 1.48804 4.76737C1.52368 3.98733 1.65393 3.56375 1.76343 3.28188C1.89173 2.93435 2.09631 2.62002 2.36194 2.36196C2.61999 2.09621 2.93432 1.89174 3.28186 1.76357C3.56372 1.65394 3.9873 1.52369 4.76733 1.48805C5.61084 1.4496 5.86389 1.44142 8 1.44142C10.1361 1.44142 10.3891 1.4496 11.2327 1.48817C12.0127 1.52369 12.4361 1.65406 12.7181 1.76357C13.0655 1.89186 13.3799 2.09633 13.6379 2.36196C13.9037 2.62002 14.1081 2.93435 14.2363 3.28188C14.346 3.56375 14.4763 3.98733 14.5118 4.76737C14.5503 5.61088 14.5585 5.86393 14.5585 8.00006C14.5585 10.1363 14.5504 10.3893 14.5118 11.2328Z" fill="#5C78A1"/>
<path d="M15.9519 4.70169C15.9129 3.85013 15.7777 3.26858 15.58 2.75978C15.3791 2.22597 15.0642 1.74245 14.6572 1.34279C14.2577 0.935799 13.774 0.620732 13.2402 0.419803C12.7313 0.222169 12.1499 0.0870368 11.2984 0.0483402C10.4452 0.00927741 10.1726 0 8 0C5.82739 0 5.55481 0.00927741 4.70166 0.0480961C3.8501 0.0870368 3.26868 0.222292 2.75976 0.420047C2.22595 0.620855 1.74243 0.935799 1.34278 1.34279C0.935791 1.74232 0.620728 2.22584 0.4198 2.75966C0.222168 3.26858 0.0870361 3.85013 0.0483399 4.70157C0.00927734 5.55485 0 5.82731 0 7.99994C0 10.1727 0.00927734 10.4453 0.0483399 11.2984C0.0871582 12.1498 0.222412 12.7314 0.420166 13.2404C0.620971 13.774 0.935913 14.2577 1.3429 14.6572C1.74243 15.0642 2.22607 15.3791 2.75989 15.58C3.26868 15.7778 3.85022 15.9129 4.70178 15.9519C5.55505 15.9909 5.82751 16 8.00012 16C10.1727 16 10.4453 15.9909 11.2984 15.9519C12.15 15.9129 12.7315 15.7778 13.2404 15.58C14.3149 15.1644 15.1644 14.3149 15.58 13.2404C15.7778 12.7314 15.9129 12.1498 15.9519 11.2984C15.9907 10.4452 16 10.1727 16 8.00006C16 5.82731 15.9907 5.55485 15.9519 4.70169ZM14.5118 11.2328C14.4763 12.0129 14.346 12.4365 14.2364 12.7184C13.9672 13.4161 13.4159 13.9675 12.7181 14.2367C12.4362 14.3462 12.0127 14.4765 11.2327 14.5121C10.3893 14.5507 10.1362 14.5587 8 14.5587C5.86365 14.5587 5.61072 14.5507 4.76721 14.5121C3.9873 14.4765 3.56372 14.3462 3.28174 14.2367C2.93432 14.1084 2.61999 13.9039 2.36194 13.6382C2.09619 13.3801 1.89173 13.0659 1.76343 12.7184C1.65393 12.4365 1.52356 12.0129 1.48804 11.2328C1.44958 10.3894 1.4414 10.1363 1.4414 8.00018C1.4414 5.86393 1.44958 5.611 1.48804 4.76737C1.52368 3.98733 1.65393 3.56375 1.76343 3.28188C1.89173 2.93435 2.09631 2.62002 2.36194 2.36196C2.61999 2.09621 2.93432 1.89174 3.28186 1.76357C3.56372 1.65394 3.9873 1.52369 4.76733 1.48805C5.61084 1.4496 5.86389 1.44142 8 1.44142C10.1361 1.44142 10.3891 1.4496 11.2327 1.48817C12.0127 1.52369 12.4361 1.65406 12.7181 1.76357C13.0655 1.89186 13.3799 2.09633 13.6379 2.36196C13.9037 2.62002 14.1081 2.93435 14.2363 3.28188C14.346 3.56375 14.4763 3.98733 14.5118 4.76737C14.5503 5.61088 14.5585 5.86393 14.5585 8.00006C14.5585 10.1363 14.5504 10.3893 14.5118 11.2328Z" fill="#5C78A1"/>
<path d="M7.99989 3.89183C5.73109 3.89183 3.89185 5.7312 3.89185 8.00001C3.89185 10.2688 5.73109 12.108 7.99989 12.108C10.2688 12.108 12.108 10.2688 12.108 8.00001C12.108 5.7312 10.2688 3.89183 7.99989 3.89183ZM7.99989 10.6666C6.52723 10.6665 5.33326 9.47266 5.33338 7.99989C5.33338 6.52722 6.52723 5.33324 8.00001 5.33324C9.47275 5.33336 10.6666 6.52722 10.6666 7.99989C10.6666 9.47266 9.47266 10.6666 7.99989 10.6666Z" fill="#5C78A1"/>
<path d="M7.99989 3.89183C5.73109 3.89183 3.89185 5.7312 3.89185 8.00001C3.89185 10.2688 5.73109 12.108 7.99989 12.108C10.2688 12.108 12.108 10.2688 12.108 8.00001C12.108 5.7312 10.2688 3.89183 7.99989 3.89183ZM7.99989 10.6666C6.52723 10.6665 5.33326 9.47266 5.33338 7.99989C5.33338 6.52722 6.52723 5.33324 8.00001 5.33324C9.47275 5.33336 10.6666 6.52722 10.6666 7.99989C10.6666 9.47266 9.47266 10.6666 7.99989 10.6666Z" fill="#5C78A1"/>
<path d="M13.2303 3.72965C13.2303 4.2598 12.8006 4.68961 12.2704 4.68961C11.7401 4.68961 11.3103 4.2598 11.3103 3.72965C11.3103 3.19937 11.7401 2.76955 12.2704 2.76955C12.8006 2.76955 13.2303 3.19937 13.2303 3.72965Z" fill="#5C78A1"/>
<path d="M13.2303 3.72965C13.2303 4.2598 12.8006 4.68961 12.2704 4.68961C11.7401 4.68961 11.3103 4.2598 11.3103 3.72965C11.3103 3.19937 11.7401 2.76955 12.2704 2.76955C12.8006 2.76955 13.2303 3.19937 13.2303 3.72965Z" fill="#5C78A1"/>
</svg>
