<svg width="22" height="21" viewBox="0 0 22 21" fill="none" xmlns="http://www.w3.org/2000/svg">
<path d="M17.2718 13.2344C16.9054 13.4258 16.4843 13.5352 16.0414 13.5352C14.5703 13.5352 13.3726 12.343 13.3726 10.8664C13.3726 9.38984 14.5648 8.19766 16.0414 8.19766C16.4843 8.19766 16.9054 8.30703 17.2718 8.49844C16.4187 8.94141 15.8335 9.83281 15.8335 10.8609C15.8335 11.8891 16.4187 12.7914 17.2718 13.2344ZM3.28276 16.0781V4.92188C3.28276 2.65781 5.1148 0.820312 7.37339 0.820312H4.87964C2.61558 0.820312 0.778076 2.65781 0.778076 4.92188V16.0781C0.778076 18.3422 2.61558 20.1797 4.87964 20.1797H7.36792C5.11479 20.1797 3.28276 18.3422 3.28276 16.0781Z" fill="#CEE1F2"/>
<path d="M16.0413 14.3555C14.1163 14.3555 12.5522 12.7914 12.5522 10.8664C12.5522 8.94141 14.1163 7.37734 16.0413 7.37734C17.9663 7.37734 19.5304 8.94141 19.5304 10.8664C19.5304 12.7914 17.9608 14.3555 16.0413 14.3555ZM16.0413 9.02344C15.0241 9.02344 14.1929 9.84922 14.1929 10.8719C14.1929 11.8945 15.0187 12.7203 16.0413 12.7203C17.064 12.7203 17.8897 11.8945 17.8897 10.8719C17.8897 9.84922 17.0585 9.02344 16.0413 9.02344ZM9.51709 20.1797C9.51709 19.7258 9.15068 19.3594 8.69678 19.3594H4.92334C3.11318 19.3594 1.64209 17.8883 1.64209 16.0781V4.92188C1.64209 3.11172 3.11318 1.64062 4.92334 1.64062H12.4702C14.2804 1.64062 15.7515 3.11172 15.7515 4.92188C15.7515 5.37578 16.1179 5.74219 16.5718 5.74219C17.0257 5.74219 17.3921 5.37578 17.3921 4.92188C17.3921 2.20938 15.1827 0 12.4702 0H4.92334C2.21084 0 0.00146484 2.20938 0.00146484 4.92188V16.0781C0.00146484 18.7906 2.21084 21 4.92334 21H8.69678C9.15068 21 9.51709 20.6336 9.51709 20.1797ZM10.8679 9.31328C10.8679 8.85938 10.5015 8.49297 10.0476 8.49297H6.02803C5.57412 8.49297 5.20771 8.85938 5.20771 9.31328C5.20771 9.76719 5.57412 10.1336 6.02803 10.1336H10.0476C10.5015 10.1336 10.8679 9.76172 10.8679 9.31328ZM10.8679 15.5859C10.8679 15.132 10.5015 14.7656 10.0476 14.7656H6.02803C5.57412 14.7656 5.20771 15.132 5.20771 15.5859C5.20771 16.0398 5.57412 16.4062 6.02803 16.4062H10.0476C10.5015 16.4062 10.8679 16.0398 10.8679 15.5859ZM10.8679 12.4305C10.8679 11.9766 10.5015 11.6102 10.0476 11.6102H6.02803C5.57412 11.6102 5.20771 11.9766 5.20771 12.4305C5.20771 12.8844 5.57412 13.2508 6.02803 13.2508H10.0476C10.5015 13.2508 10.8679 12.8789 10.8679 12.4305Z" fill="#142E55"/>
<path d="M20.1812 21C19.7273 21 19.3609 20.6336 19.3609 20.1797C19.3609 18.55 18.0429 17.2266 16.4296 17.2266H15.7351C14.1164 17.2266 12.8039 18.55 12.8039 20.1797C12.8039 20.6336 12.4375 21 11.9835 21C11.5296 21 11.1632 20.6336 11.1632 20.1797C11.1632 17.6477 13.214 15.5859 15.7351 15.5859H16.4296C18.9507 15.5859 21.0015 17.6477 21.0015 20.1797C21.0015 20.6336 20.6351 21 20.1812 21ZM12.5085 6.15234C12.5085 5.69844 12.1421 5.33203 11.6882 5.33203H6.02808C5.57417 5.33203 5.20776 5.69844 5.20776 6.15234C5.20776 6.60625 5.57417 6.97266 6.02808 6.97266H11.6882C12.1421 6.97266 12.5085 6.60625 12.5085 6.15234Z" fill="#48C8B7"/>
</svg>
