<svg width="42" height="44" viewBox="0 0 42 44" fill="none" xmlns="http://www.w3.org/2000/svg">
<path d="M15.2223 27.5C22.8652 27.5 29.0609 21.3439 29.0609 13.75C29.0609 6.15608 22.8652 0 15.2223 0C7.57952 0 1.38379 6.15608 1.38379 13.75C1.38379 21.3439 7.57952 27.5 15.2223 27.5Z" fill="#E9EAEB"/>
<path d="M40.4086 12.375H9.82544L14.4614 28.875H35.2192C35.9803 28.875 36.6722 28.3938 36.949 27.6375L41.3081 13.5438C41.4465 12.925 41.0314 12.375 40.4086 12.375Z" fill="white"/>
<path d="M12.4546 12.375H40.4085C41.0312 12.375 41.4463 12.925 41.2388 13.5438L36.8796 27.6375C36.672 28.3938 35.9801 28.875 35.219 28.875H14.4612" stroke="#142E55" stroke-width="1.2" stroke-miterlimit="10" stroke-linecap="round"/>
<path d="M34.5963 35.0625H17.9901C17.0906 35.0625 16.1911 34.65 15.7759 33.55L8.64906 8.31875C8.44148 7.5625 7.68036 6.875 6.91924 6.875H0.691895" stroke="#142E55" stroke-width="1.2" stroke-miterlimit="10" stroke-linecap="round"/>
<path d="M17.2982 43.3125C18.8268 43.3125 20.0659 42.0813 20.0659 40.5625C20.0659 39.0437 18.8268 37.8125 17.2982 37.8125C15.7697 37.8125 14.5305 39.0437 14.5305 40.5625C14.5305 42.0813 15.7697 43.3125 17.2982 43.3125Z" fill="#94EBDF" stroke="#142E55" stroke-width="1.2" stroke-miterlimit="10" stroke-linejoin="round"/>
<path d="M31.8285 43.3125C33.3571 43.3125 34.5962 42.0813 34.5962 40.5625C34.5962 39.0437 33.3571 37.8125 31.8285 37.8125C30.2999 37.8125 29.0608 39.0437 29.0608 40.5625C29.0608 42.0813 30.2999 43.3125 31.8285 43.3125Z" fill="#94EBDF" stroke="#142E55" stroke-width="1.2" stroke-miterlimit="10" stroke-linejoin="round"/>
<path d="M22.1417 19.9375C23.2881 19.9375 24.2175 19.0141 24.2175 17.875C24.2175 16.7359 23.2881 15.8125 22.1417 15.8125C20.9953 15.8125 20.0659 16.7359 20.0659 17.875C20.0659 19.0141 20.9953 19.9375 22.1417 19.9375Z" stroke="#142E55" stroke-width="1.2" stroke-miterlimit="10" stroke-linecap="round"/>
<path d="M29.0609 25.4375C27.8846 25.4375 26.9851 24.5438 26.9851 23.375C26.9851 22.2062 27.8846 21.3125 29.0609 21.3125C30.2372 21.3125 31.1367 22.2062 31.1367 23.375C31.1367 24.5438 30.2372 25.4375 29.0609 25.4375Z" stroke="#142E55" stroke-width="1.2" stroke-miterlimit="10" stroke-linecap="round"/>
<path d="M21.4497 25.4375L29.7528 15.8125" stroke="#142E55" stroke-width="1.2" stroke-miterlimit="10" stroke-linecap="round"/>
<path d="M15.9143 8.9375V6.1875" stroke="#48C8B7" stroke-width="1.2" stroke-miterlimit="10"/>
<path d="M15.9143 3.4375V0.6875" stroke="#48C8B7" stroke-width="1.2" stroke-miterlimit="10"/>
<path d="M14.5304 4.8125H11.7627" stroke="#48C8B7" stroke-width="1.2" stroke-miterlimit="10"/>
<path d="M20.0658 4.8125H17.2981" stroke="#48C8B7" stroke-width="1.2" stroke-miterlimit="10"/>
<path d="M8.30298 33.6875V32.3125" stroke="#48C8B7" stroke-width="1.2" stroke-miterlimit="10"/>
<path d="M8.30298 30.9375V29.5625" stroke="#48C8B7" stroke-width="1.2" stroke-miterlimit="10"/>
<path d="M7.61115 31.625H6.22729" stroke="#48C8B7" stroke-width="1.2" stroke-miterlimit="10"/>
<path d="M10.379 31.625H8.99512" stroke="#48C8B7" stroke-width="1.2" stroke-miterlimit="10"/>
<path d="M4.15143 23.375L2.76758 24.75" stroke="#48C8B7" stroke-width="1.2" stroke-miterlimit="10"/>
<path d="M7.61115 19.9375L6.22729 21.3125" stroke="#48C8B7" stroke-width="1.2" stroke-miterlimit="10"/>
<path d="M6.22729 23.375L7.61115 24.75" stroke="#48C8B7" stroke-width="1.2" stroke-miterlimit="10"/>
<path d="M2.76758 19.9375L4.15143 21.3125" stroke="#48C8B7" stroke-width="1.2" stroke-miterlimit="10"/>
</svg>
