<svg width="22" height="21" viewBox="0 0 22 21" fill="none" xmlns="http://www.w3.org/2000/svg">
<path d="M3.28271 16.0782V4.92192C3.28271 2.65786 5.12021 0.820361 7.38428 0.820361L16.0796 0.787549V0.776611L4.92334 0.820361C2.65928 0.820361 0.821777 2.65786 0.821777 4.92192V16.0782C0.821777 18.3422 2.65928 20.1797 4.92334 20.1797L7.05615 20.1688C4.94521 19.9993 3.28271 18.2329 3.28271 16.0782Z" fill="#CEE1F2"/>
<path d="M16.0796 21H4.92334C2.21084 21 0.00146484 18.7906 0.00146484 16.0781V4.92188C0.00146484 2.20938 2.21084 0 4.92334 0H16.0796C18.7921 0 21.0015 2.20938 21.0015 4.92188V16.0781C21.0015 18.7906 18.7921 21 16.0796 21ZM4.92334 1.64062C3.11318 1.64062 1.64209 3.11172 1.64209 4.92188V16.0781C1.64209 17.8883 3.11318 19.3594 4.92334 19.3594H16.0796C17.8897 19.3594 19.3608 17.8883 19.3608 16.0781V4.92188C19.3608 3.11172 17.8897 1.64062 16.0796 1.64062H4.92334ZM17.7202 5.29375C17.7202 4.83984 17.3538 4.47344 16.8999 4.47344H4.10303C3.64912 4.47344 3.28271 4.83984 3.28271 5.29375C3.28271 5.74766 3.64912 6.11406 4.10303 6.11406H16.8999C17.3538 6.11406 17.7202 5.74219 17.7202 5.29375ZM17.764 12.9609C17.764 12.507 17.3976 12.1406 16.9437 12.1406H12.1421C11.6882 12.1406 11.3218 12.507 11.3218 12.9609C11.3218 13.4148 11.6882 13.7812 12.1421 13.7812H16.9437C17.3921 13.7812 17.764 13.4148 17.764 12.9609ZM9.7249 12.9609C9.7249 12.507 9.3585 12.1406 8.90459 12.1406H4.10303C3.64912 12.1406 3.28271 12.507 3.28271 12.9609C3.28271 13.4148 3.64912 13.7812 4.10303 13.7812H8.90459C9.35303 13.7812 9.7249 13.4148 9.7249 12.9609ZM9.7249 16.2422C9.7249 15.7883 9.3585 15.4219 8.90459 15.4219H4.10303C3.64912 15.4219 3.28271 15.7883 3.28271 16.2422C3.28271 16.6961 3.64912 17.0625 4.10303 17.0625H8.90459C9.35303 17.0625 9.7249 16.6961 9.7249 16.2422ZM16.0796 16.2422C16.0796 15.7883 15.7132 15.4219 15.2593 15.4219H12.1421C11.6882 15.4219 11.3218 15.7883 11.3218 16.2422C11.3218 16.6961 11.6882 17.0625 12.1421 17.0625H15.2593C15.7132 17.0625 16.0796 16.6961 16.0796 16.2422Z" fill="#142E55"/>
<path d="M16.9437 10.5H7.75615C7.30225 10.5 6.93584 10.1336 6.93584 9.67973C6.93584 9.22583 7.30225 8.85942 7.75615 8.85942H16.9437C17.3976 8.85942 17.764 9.22583 17.764 9.67973C17.764 10.1336 17.3921 10.5 16.9437 10.5ZM3.28271 9.5977C3.28271 10.1665 3.74209 10.6258 4.31084 10.6258C4.87959 10.6258 5.33896 10.1665 5.33896 9.5977C5.33896 9.02895 4.87959 8.56958 4.31084 8.56958C3.74209 8.56958 3.28271 9.02895 3.28271 9.5977Z" fill="#48C8B7"/>
</svg>
