<svg width="22" height="21" viewBox="0 0 22 21" fill="none" xmlns="http://www.w3.org/2000/svg">
<path d="M4.27778 16.5316L3.29888 8.46519C3.20591 7.65581 3.47935 6.89565 3.98247 6.34331L3.52856 5.78003C1.91528 5.78003 0.657471 7.1855 0.837939 8.79331L1.71841 16.5371C1.95356 18.6097 3.70903 20.1738 5.79263 20.1738H8.352C6.26841 20.1683 4.51841 18.6042 4.27778 16.5316Z" fill="#CEE1F2"/>
<path d="M15.2098 20.9891H5.79261C3.28792 20.9891 1.18792 19.1133 0.903548 16.625L0.0230791 8.88672C-0.0917647 7.89141 0.225423 6.89062 0.898079 6.14141C1.56527 5.39219 2.52777 4.96563 3.52855 4.96563C3.98245 4.96563 4.34886 5.33203 4.34886 5.78594C4.34886 6.23984 3.98245 6.60625 3.52855 6.60625C2.98167 6.60625 2.48402 6.83047 2.12308 7.23516C1.76214 7.63984 1.59261 8.16484 1.65824 8.70625L2.5387 16.45C2.73011 18.107 4.13011 19.3594 5.79808 19.3594H15.2098C16.8778 19.3594 18.2778 18.107 18.4692 16.45L19.3496 8.70625C19.4098 8.16484 19.2457 7.64531 18.8848 7.23516C18.5239 6.83047 18.0207 6.60625 17.4793 6.60625C17.0254 6.60625 16.659 6.23984 16.659 5.78594C16.659 5.33203 17.0254 4.96563 17.4793 4.96563C18.4856 4.96563 19.4426 5.39766 20.1098 6.14141C20.777 6.89062 21.0942 7.89141 20.9848 8.88672L20.1043 16.6305C19.8145 19.1133 17.709 20.9891 15.2098 20.9891ZM7.5098 11.643V4.63203C7.5098 2.98047 8.85511 1.64062 10.5012 1.64062C12.1528 1.64062 13.4926 2.98594 13.4926 4.63203V4.96016H9.96527C9.51136 4.96016 9.14495 5.32656 9.14495 5.78047C9.14495 6.23438 9.51136 6.60078 9.96527 6.60078H14.3129C14.7668 6.60078 15.1332 6.23438 15.1332 5.78047V4.63203C15.1332 2.07813 13.0551 0 10.5012 0C7.9473 0 5.86917 2.07813 5.86917 4.63203V11.643C5.86917 12.0969 6.23558 12.4633 6.68949 12.4633C7.14339 12.4633 7.5098 12.0969 7.5098 11.643Z" fill="#142E55"/>
<path d="M11.0809 10.8658C11.6497 10.8658 12.1036 11.3252 12.1036 11.8885C12.1036 12.4573 11.6442 12.9112 11.0809 12.9112C10.5122 12.9112 10.0583 12.4518 10.0583 11.8885C10.0528 11.3198 10.5122 10.8658 11.0809 10.8658ZM14.5208 16.5205C14.5208 17.0893 14.9802 17.5432 15.5434 17.5432C16.1122 17.5432 16.5661 17.0838 16.5661 16.5205C16.5661 15.9518 16.1067 15.4979 15.5434 15.4979C14.9802 15.4979 14.5208 15.9573 14.5208 16.5205ZM11.5075 17.2971L16.3473 12.2549C16.6591 11.9268 16.6481 11.4073 16.3255 11.0955C15.9973 10.7838 15.4778 10.7948 15.1661 11.1174L10.3262 16.1596C10.0145 16.4877 10.0255 17.0073 10.3481 17.319C10.5067 17.4721 10.7091 17.5487 10.9169 17.5487C11.1302 17.5487 11.3434 17.4612 11.5075 17.2971Z" fill="#48C8B7"/>
</svg>
