<svg width="22" height="21" viewBox="0 0 22 21" fill="none" xmlns="http://www.w3.org/2000/svg">
<path d="M5.49756 5.25H3.03662C1.81162 5.25 0.821777 4.26016 0.821777 3.03516C0.821777 1.81016 1.81162 0.820312 3.03662 0.820312H5.49756C4.27256 0.820312 3.28271 1.81016 3.28271 3.03516C3.28271 4.26016 4.27256 5.25 5.49756 5.25ZM3.28271 10.5C3.28271 9.275 4.27256 8.28516 5.49756 8.28516H3.03662C1.81162 8.28516 0.821777 9.275 0.821777 10.5C0.821777 11.725 1.81162 12.7148 3.03662 12.7148H5.49756C4.27256 12.7148 3.28271 11.725 3.28271 10.5ZM3.28271 17.9648C3.28271 16.7398 4.27256 15.75 5.49756 15.75H3.03662C1.81162 15.75 0.821777 16.7398 0.821777 17.9648C0.821777 19.1898 1.81162 20.1797 3.03662 20.1797H5.49756C4.27256 20.1797 3.28271 19.1898 3.28271 17.9648Z" fill="#CEE1F2"/>
<path d="M6.45459 6.07031H3.03662C1.36318 6.07031 0.00146484 4.70859 0.00146484 3.03516C0.00146484 1.36172 1.36318 0 3.03662 0H6.48193C6.93584 0 7.30225 0.366406 7.30225 0.820312C7.30225 1.27422 6.93584 1.64062 6.48193 1.64062H3.03662C2.26553 1.64062 1.64209 2.26406 1.64209 3.03516C1.64209 3.80625 2.26553 4.42969 3.03662 4.42969H6.45459C6.9085 4.42969 7.2749 4.79609 7.2749 5.25C7.2749 5.70391 6.9085 6.07031 6.45459 6.07031ZM21.0015 3.03516C21.0015 1.36172 19.6397 0 17.9663 0H9.76318C9.30928 0 8.94287 0.366406 8.94287 0.820312C8.94287 1.27422 9.30928 1.64062 9.76318 1.64062H17.9663C18.7374 1.64062 19.3608 2.26406 19.3608 3.03516C19.3608 3.80625 18.7374 4.42969 17.9663 4.42969H9.73584C9.28193 4.42969 8.91553 4.79609 8.91553 5.25C8.91553 5.70391 9.28193 6.07031 9.73584 6.07031H17.9663C19.6397 6.07031 21.0015 4.70859 21.0015 3.03516ZM14.3187 12.7148C14.3187 12.2609 13.9522 11.8945 13.4983 11.8945H3.03662C2.26553 11.8945 1.64209 11.2711 1.64209 10.5C1.64209 9.72891 2.26553 9.10547 3.03662 9.10547H13.4983C13.9522 9.10547 14.3187 8.73906 14.3187 8.28516C14.3187 7.83125 13.9522 7.46484 13.4983 7.46484H3.03662C1.36318 7.46484 0.00146484 8.82656 0.00146484 10.5C0.00146484 12.1734 1.36318 13.5352 3.03662 13.5352H13.4983C13.9468 13.5352 14.3187 13.1687 14.3187 12.7148ZM20.9632 17.9648C20.9632 16.2914 19.6015 14.9297 17.928 14.9297H11.7702C11.3163 14.9297 10.9499 15.2961 10.9499 15.75C10.9499 16.2039 11.3163 16.5703 11.7702 16.5703H17.9226C18.6937 16.5703 19.3171 17.1938 19.3171 17.9648C19.3171 18.7359 18.6937 19.3594 17.928 19.3594H11.7702C11.3163 19.3594 10.9499 19.7258 10.9499 20.1797C10.9499 20.6336 11.3163 21 11.7702 21H17.9226C19.6015 21 20.9632 19.6383 20.9632 17.9648ZM9.31475 20.1797C9.31475 19.7258 8.94834 19.3594 8.49443 19.3594H3.03662C2.26553 19.3594 1.64209 18.7359 1.64209 17.9648C1.64209 17.1938 2.26553 16.5703 3.03662 16.5703H8.49443C8.94834 16.5703 9.31475 16.2039 9.31475 15.75C9.31475 15.2961 8.94834 14.9297 8.49443 14.9297H3.03662C1.36318 14.9297 0.00146484 16.2914 0.00146484 17.9648C0.00146484 19.6383 1.36318 21 3.03662 21H8.49443C8.94287 21 9.31475 20.6336 9.31475 20.1797Z" fill="#142E55"/>
<path d="M17.928 13.5352H16.7795C16.3256 13.5352 15.9592 13.1687 15.9592 12.7148C15.9592 12.2609 16.3256 11.8945 16.7795 11.8945H17.928C18.6991 11.8945 19.3225 11.2711 19.3225 10.5C19.3225 9.72891 18.6991 9.10547 17.928 9.10547H16.7795C16.3256 9.10547 15.9592 8.73906 15.9592 8.28516C15.9592 7.83125 16.3256 7.46484 16.7795 7.46484H17.928C19.6014 7.46484 20.9631 8.82656 20.9631 10.5C20.9631 12.1734 19.6014 13.5352 17.928 13.5352Z" fill="#48C8B7"/>
</svg>
