<svg width="41" height="44" viewBox="0 0 41 44" fill="none" xmlns="http://www.w3.org/2000/svg">
<path d="M22.7471 41.7444C32.8282 41.7444 41.0005 33.275 41.0005 22.8274C41.0005 12.3797 32.8282 3.91028 22.7471 3.91028C12.666 3.91028 4.49365 12.3797 4.49365 22.8274C4.49365 33.275 12.666 41.7444 22.7471 41.7444Z" fill="#E9EAEB"/>
<path d="M31.7336 24.5009L27.5914 26.5381L27.3808 26.6108C27.1 26.1015 26.6086 25.7377 25.9065 25.7377H21.6942C20.7113 25.7377 19.237 24.2826 18.1137 24.2826C17.6223 24.2826 15.1651 24.2826 13.9716 24.2826C12.2866 24.2826 10.7421 25.7377 9.89966 26.5381C8.56576 27.9205 5.89795 30.6853 5.89795 30.6853L12.3569 37.379C13.4099 36.2877 14.6736 35.1963 15.7267 35.1963C16.499 35.1963 21.2027 35.1963 24.1514 35.1963C25.4853 35.1963 26.749 34.7597 27.7319 33.8139L34.7524 26.5381L36.7182 21.3723C35.4545 20.2081 32.7164 21.5178 31.7336 24.5009Z" fill="white"/>
<path d="M18.5349 30.1032H25.9065C27.1 30.1032 27.6617 29.1573 27.6617 27.9204C27.6617 26.6835 27.0298 25.7377 25.9065 25.7377H21.6942C20.7113 25.7377 19.237 24.2825 18.1137 24.2825C17.6223 24.2825 15.1651 24.2825 13.9716 24.2825C12.2866 24.2825 10.7421 25.7377 9.89966 26.538C8.56576 27.9204 5.89795 30.6852 5.89795 30.6852L12.3569 37.379C13.4099 36.2876 14.6736 35.1962 15.7267 35.1962C16.499 35.1962 21.2027 35.1962 24.1514 35.1962C25.4853 35.1962 26.749 34.7597 27.7319 33.8138L34.7524 26.538L36.7182 21.3722C35.5247 20.1353 32.7164 21.445 31.7336 24.428L27.5914 26.4653" stroke="#142E55" stroke-width="1.2" stroke-miterlimit="10" stroke-linecap="round"/>
<path d="M5.2196 28.6233L1 32.9963L10.1342 42.4626L14.3538 38.0896L5.2196 28.6233Z" fill="#94EBDF" stroke="#142E55" stroke-width="1.2" stroke-miterlimit="10"/>
<path d="M6.31915 34.0321L4.91504 32.577" stroke="#142E55" stroke-width="1.2" stroke-miterlimit="10"/>
<path d="M9.4082 1.7276V3.18276" stroke="#48C8B7" stroke-width="1.2" stroke-miterlimit="10"/>
<path d="M9.4082 4.63788V6.09304" stroke="#48C8B7" stroke-width="1.2" stroke-miterlimit="10"/>
<path d="M8.70611 3.91034H7.302" stroke="#48C8B7" stroke-width="1.2" stroke-miterlimit="10"/>
<path d="M11.5145 3.91034H10.1104" stroke="#48C8B7" stroke-width="1.2" stroke-miterlimit="10"/>
<path d="M5.1958 8.27582V9.73098" stroke="#48C8B7" stroke-width="1.2" stroke-miterlimit="10"/>
<path d="M5.1958 11.1861V12.6413" stroke="#48C8B7" stroke-width="1.2" stroke-miterlimit="10"/>
<path d="M4.49371 10.4586H3.0896" stroke="#48C8B7" stroke-width="1.2" stroke-miterlimit="10"/>
<path d="M7.30206 10.4586H5.89795" stroke="#48C8B7" stroke-width="1.2" stroke-miterlimit="10"/>
<path d="M34.6822 4.63794L33.2781 6.0931" stroke="#48C8B7" stroke-width="1.2" stroke-miterlimit="10"/>
<path d="M38.1924 1L36.7883 2.45516" stroke="#48C8B7" stroke-width="1.2" stroke-miterlimit="10"/>
<path d="M36.7883 4.63794L38.1924 6.0931" stroke="#48C8B7" stroke-width="1.2" stroke-miterlimit="10"/>
<path d="M33.2781 1L34.6822 2.45516" stroke="#48C8B7" stroke-width="1.2" stroke-miterlimit="10"/>
<path d="M18.5348 14.0965C20.0857 14.0965 21.343 12.7935 21.343 11.1861C21.343 9.57881 20.0857 8.27582 18.5348 8.27582C16.9838 8.27582 15.7266 9.57881 15.7266 11.1861C15.7266 12.7935 16.9838 14.0965 18.5348 14.0965Z" stroke="#142E55" stroke-width="1.2" stroke-miterlimit="10" stroke-linecap="round"/>
<path d="M26.9593 21.3723C25.4148 21.3723 24.1511 20.0626 24.1511 18.462C24.1511 16.8613 25.4148 15.5516 26.9593 15.5516C28.5039 15.5516 29.7676 16.8613 29.7676 18.462C29.7676 20.0626 28.5039 21.3723 26.9593 21.3723Z" stroke="#142E55" stroke-width="1.2" stroke-miterlimit="10" stroke-linecap="round"/>
<path d="M17.1306 21.3723L28.3635 8.27582" stroke="#142E55" stroke-width="1.2" stroke-miterlimit="10" stroke-linecap="round"/>
</svg>
