<svg width="21" height="22" viewBox="0 0 21 22" fill="none" xmlns="http://www.w3.org/2000/svg">
<path d="M3.12647 17.6011V8.68622C3.12647 8.26434 3.32439 7.86851 3.65772 7.6133L9.97545 2.79558C10.7827 2.18099 11.7671 1.92057 12.7307 2.01432L12.3713 1.73828C10.9702 0.670569 9.03274 0.670569 7.6317 1.73828L2.31918 5.79038C1.35043 6.52996 0.782715 8.75736 0.782715 9.97611V16.549C0.782715 18.5907 2.35043 20.2678 4.34523 20.4397C3.59522 19.7261 3.12647 18.7209 3.12647 17.6011Z" fill="#CEE1F2"/>
<path d="M15.314 21.2371H4.68898C2.10564 21.2371 0.00146484 19.1329 0.00146484 16.5496V8.73828C0.00146484 7.28515 0.688967 5.89453 1.84522 5.00911L7.15774 0.957017C8.82962 -0.319027 11.1682 -0.319027 12.8453 0.957017L18.1578 5.00911C19.314 5.88932 20.0015 7.28515 20.0015 8.73828V16.5496C20.0015 19.1329 17.8974 21.2371 15.314 21.2371ZM10.0015 1.56118C9.33483 1.56118 8.66295 1.77473 8.10566 2.20181L2.79314 6.2539C2.0223 6.83724 1.56397 7.76953 1.56397 8.73828V16.5496C1.56397 18.2735 2.96502 19.6746 4.68898 19.6746H15.314C17.038 19.6746 18.439 18.2735 18.439 16.5496V8.73828C18.439 7.76953 17.9807 6.84244 17.2099 6.2539L11.8973 2.20181C11.34 1.77473 10.6682 1.56118 10.0015 1.56118Z" fill="#142E55"/>
<path d="M12.1319 8.23828C12.6131 8.23828 13.0015 8.6087 13.0015 9.06758C13.0015 9.52093 12.6131 9.89689 12.1319 9.89689H7.87103C7.38987 9.89689 7.00146 9.52646 7.00146 9.06758C7.00146 8.6087 7.38987 8.23828 7.87103 8.23828H12.1319Z" fill="#48C8B7"/>
<path d="M12.1319 14.5797C12.6131 14.5797 13.0015 14.9501 13.0015 15.409C13.0015 15.8679 12.6131 16.2383 12.1319 16.2383H7.87103C7.38987 16.2383 7.00146 15.8679 7.00146 15.409C7.00146 14.9501 7.38987 14.5797 7.87103 14.5797H12.1319Z" fill="#48C8B7"/>
<path d="M12.1319 11.3896C12.6131 11.3896 13.0015 11.7601 13.0015 12.2189C13.0015 12.6723 12.6131 13.0482 12.1319 13.0482H7.87103C7.38987 13.0482 7.00146 12.6778 7.00146 12.2189C7.00146 11.7601 7.38987 11.3896 7.87103 11.3896H12.1319Z" fill="#48C8B7"/>
</svg>
