<svg width="45" height="42" viewBox="0 0 45 42" fill="none" xmlns="http://www.w3.org/2000/svg">
<path d="M28.9366 30.2951C37.4225 30.2951 44.3017 23.5133 44.3017 15.1475C44.3017 6.78178 37.4225 0 28.9366 0C20.4507 0 13.5715 6.78178 13.5715 15.1475C13.5715 23.5133 20.4507 30.2951 28.9366 30.2951Z" fill="#E9EAEB"/>
<path d="M20.5555 11.0164H12.1746V41.3115H20.5555V11.0164Z" fill="white"/>
<path d="M20.5555 41.3115H17.0635" stroke="#142E55" stroke-width="1.2" stroke-miterlimit="10" stroke-linecap="round"/>
<path d="M12.1746 26.8525V11.0164H20.5555" stroke="#142E55" stroke-width="1.2" stroke-miterlimit="10" stroke-linecap="round"/>
<path d="M28.9366 2.75409H20.5557V41.3115H28.9366V2.75409Z" fill="#94EBDF" stroke="#142E55" stroke-width="1.2" stroke-miterlimit="10" stroke-linecap="round"/>
<path d="M37.3175 21.3442H28.9365V41.3115H37.3175V21.3442Z" fill="white" stroke="#142E55" stroke-width="1.2" stroke-miterlimit="10" stroke-linecap="round"/>
<path d="M3.79365 34.4262C5.33654 34.4262 6.5873 33.1932 6.5873 31.6721C6.5873 30.1511 5.33654 28.918 3.79365 28.918C2.25076 28.918 1 30.1511 1 31.6721C1 33.1932 2.25076 34.4262 3.79365 34.4262Z" stroke="#142E55" stroke-width="1.2" stroke-miterlimit="10" stroke-linecap="round"/>
<path d="M12.1745 41.3115C10.638 41.3115 9.38086 40.0721 9.38086 38.5574C9.38086 37.0426 10.638 35.8033 12.1745 35.8033C13.711 35.8033 14.9682 37.0426 14.9682 38.5574C14.9682 40.0721 13.711 41.3115 12.1745 41.3115Z" stroke="#142E55" stroke-width="1.2" stroke-miterlimit="10" stroke-linecap="round"/>
<path d="M2.39697 41.3115L13.5716 28.918" stroke="#142E55" stroke-width="1.2" stroke-miterlimit="10" stroke-linecap="round"/>
</svg>
