<svg width="22" height="21" viewBox="0 0 22 21" fill="none" xmlns="http://www.w3.org/2000/svg">
<path d="M3.28271 18.5391C3.28271 17.6313 4.01553 16.8984 4.92334 16.8984H2.4624C1.55459 16.8984 0.821777 17.6313 0.821777 18.5391C0.821777 19.4469 1.55459 20.1797 2.4624 20.1797H4.92334C4.01553 20.1797 3.28271 19.4469 3.28271 18.5391Z" fill="#CEE1F2"/>
<path d="M18.5405 14.6453C18.0866 14.6453 17.7202 14.2789 17.7202 13.825V12.6766C17.7202 12.2227 18.0866 11.8562 18.5405 11.8562C18.9944 11.8562 19.3608 12.2227 19.3608 12.6766V13.825C19.3608 14.2734 18.9944 14.6453 18.5405 14.6453ZM3.28271 13.825V7.79297C3.28271 5.98281 4.75381 4.51172 6.56396 4.51172H8.08428C8.53818 4.51172 8.90459 4.14531 8.90459 3.69141C8.90459 3.2375 8.53818 2.87109 8.08428 2.87109H6.56396C3.85146 2.87109 1.64209 5.08047 1.64209 7.79297V13.825C1.64209 14.2789 2.0085 14.6453 2.4624 14.6453C2.91631 14.6453 3.28271 14.2734 3.28271 13.825ZM21.0015 18.5391C21.0015 17.1828 19.8968 16.0781 18.5405 16.0781H2.4624C1.10615 16.0781 0.00146484 17.1828 0.00146484 18.5391C0.00146484 19.8953 1.10615 21 2.4624 21H18.5405C19.8968 21 21.0015 19.8953 21.0015 18.5391ZM18.5405 17.7188C18.9944 17.7188 19.3608 18.0852 19.3608 18.5391C19.3608 18.993 18.9944 19.3594 18.5405 19.3594H2.4624C2.0085 19.3594 1.64209 18.993 1.64209 18.5391C1.64209 18.0852 2.0085 17.7188 2.4624 17.7188H18.5405Z" fill="#142E55"/>
<path d="M10.9718 10.8281C10.8679 10.8281 10.7586 10.8062 10.6601 10.768C10.3539 10.6422 10.1515 10.3414 10.1515 10.0078V5.46328C10.1406 4.01406 10.6984 2.64141 11.7211 1.60781C12.7492 0.56875 14.1164 0 15.5656 0C17.0257 0 18.3929 0.56875 19.4156 1.59688C20.4383 2.63047 20.9961 4.00313 20.9797 5.46875C20.9633 6.90703 20.3945 8.25781 19.3664 9.26953C18.3437 10.2758 16.9875 10.8336 15.5492 10.8336H15.5437C14.6961 10.8336 13.8867 10.6422 13.1375 10.2703C12.6343 10.0188 12.0273 10.1172 11.6281 10.5164L11.5515 10.593C11.3984 10.7461 11.1851 10.8281 10.9718 10.8281ZM12.5578 8.4875C13.0062 8.4875 13.4547 8.59141 13.8703 8.79922C14.3898 9.05625 14.9531 9.1875 15.5437 9.1875C15.5437 9.1875 15.5437 9.1875 15.5492 9.1875C17.6218 9.1875 19.3226 7.51406 19.339 5.45234C19.35 4.42969 18.9617 3.47266 18.2507 2.75078C17.5398 2.03437 16.5882 1.64062 15.5656 1.64062C14.5539 1.64062 13.6023 2.03984 12.8859 2.76172C12.1695 3.48359 11.7812 4.44062 11.7922 5.45234C11.7922 5.45781 11.7922 5.45781 11.7922 5.45781V8.58594C12.0437 8.52031 12.2953 8.4875 12.5578 8.4875Z" fill="#48C8B7"/>
</svg>
