<svg width="43" height="42" viewBox="0 0 43 42" fill="none" xmlns="http://www.w3.org/2000/svg">
<path d="M17.6341 35.2258C27.3731 35.2258 35.2681 27.3402 35.2681 17.6129C35.2681 7.88556 27.3731 0 17.6341 0C7.89504 0 0 7.88556 0 17.6129C0 27.3402 7.89504 35.2258 17.6341 35.2258Z" fill="#E9EAEB"/>
<path d="M36.6246 4.74194H15.5993C14.1072 4.74194 12.8864 5.9613 12.8864 7.45162V18.9677H4.7476C3.25549 18.9677 2.03467 20.1871 2.03467 21.6774V34.5484H7.46054V38.6129C7.46054 40.1032 8.68136 41.3226 10.1735 41.3226H33.2334C34.7255 41.3226 35.9463 40.1032 35.9463 38.6129V9.48388H39.3375V7.45162C39.3375 5.9613 38.1167 4.74194 36.6246 4.74194Z" fill="white"/>
<path d="M15.5993 4.74194C14.1072 4.74194 12.8864 5.9613 12.8864 7.45162V38.6129C12.8864 40.1032 11.6656 41.3226 10.1735 41.3226C8.68136 41.3226 7.46054 40.1032 7.46054 38.6129V21.6774C7.46054 20.1871 6.23972 18.9678 4.7476 18.9678C3.25549 18.9678 2.03467 20.1871 2.03467 21.6774V34.5484H5.42584" stroke="#142E55" stroke-width="1.2" stroke-miterlimit="10" stroke-linecap="round" stroke-linejoin="round"/>
<path d="M15.5994 4.74194C17.0915 4.74194 18.3123 5.9613 18.3123 7.45162V9.48388H39.3375V7.45162C39.3375 5.9613 38.1167 4.74194 36.6246 4.74194H15.5994Z" fill="#94EBDF" stroke="#142E55" stroke-width="1.2" stroke-miterlimit="10" stroke-linecap="round" stroke-linejoin="round"/>
<path d="M4.74756 18.9678H10.8517" stroke="#142E55" stroke-width="1.2" stroke-miterlimit="10" stroke-linecap="round"/>
<path d="M10.1736 41.3226H33.2335C34.7256 41.3226 35.9465 40.1033 35.9465 38.6129V28.4517" stroke="#142E55" stroke-width="1.2" stroke-miterlimit="10" stroke-linecap="round"/>
<path d="M21.9749 33.7354C20.6184 31.4999 21.0253 27.5031 21.5001 26.0805L22.8566 25.7418C22.8566 25.7418 22.5175 23.7096 24.0774 21.745C25.9086 19.3741 31.1988 14.6321 41.3723 14.0902C37.6421 18.2225 34.997 25.2676 34.3187 26.3515C32.9623 27.2999 31.6058 27.9096 31.6058 27.9096L32.8266 29.1289C32.8266 29.1289 26.1121 34.887 21.9749 33.7354Z" fill="#94EBDF" stroke="#142E55" stroke-width="1.2" stroke-miterlimit="10"/>
<path d="M33.4369 19.9838C25.705 25.8773 21.6356 33.3289 20.0757 38.2063" stroke="#142E55" stroke-width="1.2" stroke-miterlimit="10" stroke-linecap="round"/>
<path d="M35.9463 12.1934V9.48376" stroke="#142E55" stroke-width="1.2" stroke-miterlimit="10" stroke-linecap="round"/>
<path d="M6.78223 11.5162V12.8711" stroke="#48C8B7" stroke-width="1.2" stroke-miterlimit="10"/>
<path d="M6.78223 14.226V15.5808" stroke="#48C8B7" stroke-width="1.2" stroke-miterlimit="10"/>
<path d="M6.10403 13.5485H4.74756" stroke="#48C8B7" stroke-width="1.2" stroke-miterlimit="10"/>
<path d="M8.81691 13.5485H7.46045" stroke="#48C8B7" stroke-width="1.2" stroke-miterlimit="10"/>
<path d="M4.06936 4.74194L2.71289 6.09678" stroke="#48C8B7" stroke-width="1.2" stroke-miterlimit="10"/>
<path d="M7.46047 1.35486L6.104 2.7097" stroke="#48C8B7" stroke-width="1.2" stroke-miterlimit="10"/>
<path d="M6.104 4.74194L7.46047 6.09678" stroke="#48C8B7" stroke-width="1.2" stroke-miterlimit="10"/>
<path d="M2.71289 1.35486L4.06936 2.7097" stroke="#48C8B7" stroke-width="1.2" stroke-miterlimit="10"/>
</svg>
