<svg width="22" height="21" viewBox="0 0 22 21" fill="none" xmlns="http://www.w3.org/2000/svg">
<path d="M3.28271 10.5C3.28271 5.57266 6.96865 1.50391 11.7319 0.896875C11.3272 0.847656 10.9171 0.820312 10.5015 0.820312C5.15303 0.820312 0.821777 5.15156 0.821777 10.5C0.821777 15.8484 5.15303 20.1797 10.5015 20.1797C10.9171 20.1797 11.3272 20.1523 11.7319 20.1031C6.96865 19.4961 3.28271 15.4273 3.28271 10.5Z" fill="#CEE1F2"/>
<path d="M20.1811 5.62188C19.7272 5.62188 19.3608 5.25547 19.3608 4.80156V2.46094C19.3608 2.00703 18.9944 1.64062 18.5405 1.64062H16.2436C15.7897 1.64062 15.4233 1.27422 15.4233 0.820312C15.4233 0.366406 15.7897 0 16.2436 0H18.5405C19.8967 0 21.0014 1.10469 21.0014 2.46094V4.80156C21.0014 5.25 20.635 5.62188 20.1811 5.62188ZM7.26938 14.8531L17.8897 4.23281C18.2124 3.91016 18.2124 3.39062 17.8897 3.07344C17.567 2.75078 17.0475 2.75078 16.7303 3.07344L6.10454 13.6937C5.78188 14.0164 5.78188 14.5359 6.10454 14.8531C6.26313 15.0117 6.47642 15.0938 6.68423 15.0938C6.89751 15.0938 7.10532 15.0117 7.26938 14.8531Z" fill="#48C8B7"/>
<path d="M13.7827 16.45C12.4265 16.45 11.3218 15.3453 11.3218 13.9891C11.3218 12.6328 12.4265 11.5281 13.7827 11.5281C15.139 11.5281 16.2437 12.6328 16.2437 13.9891C16.2437 15.3453 15.139 16.45 13.7827 16.45ZM13.7827 13.1687C13.3288 13.1687 12.9624 13.5352 12.9624 13.9891C12.9624 14.443 13.3288 14.8094 13.7827 14.8094C14.2366 14.8094 14.603 14.443 14.603 13.9891C14.603 13.5352 14.2366 13.1687 13.7827 13.1687ZM7.22021 9.47734C5.86397 9.47734 4.75928 8.37266 4.75928 7.01641C4.75928 5.66016 5.86397 4.55547 7.22021 4.55547C8.57646 4.55547 9.68115 5.66016 9.68115 7.01641C9.68115 8.37266 8.57646 9.47734 7.22021 9.47734ZM7.22021 6.19609C6.76631 6.19609 6.3999 6.5625 6.3999 7.01641C6.3999 7.47031 6.76631 7.83672 7.22021 7.83672C7.67412 7.83672 8.04053 7.47031 8.04053 7.01641C8.04053 6.5625 7.67412 6.19609 7.22021 6.19609ZM17.928 17.9266C19.9077 15.9414 21.0015 13.3055 21.0015 10.5C21.0015 9.61406 20.8921 8.72812 20.6679 7.875C20.553 7.4375 20.1101 7.16953 19.6671 7.28437C19.2296 7.39922 18.9616 7.84219 19.0765 8.28516C19.2624 9.00703 19.3554 9.75078 19.3554 10.5C19.3554 15.3836 15.3796 19.3594 10.496 19.3594C5.6124 19.3594 1.64209 15.3836 1.64209 10.5C1.64209 5.61641 5.61787 1.64062 10.5015 1.64062C11.2616 1.64062 12.0218 1.73906 12.7546 1.93047C13.1921 2.04531 13.6405 1.78281 13.7554 1.34531C13.8702 0.907813 13.6077 0.459375 13.1702 0.344531C12.3007 0.114844 11.4038 0 10.5015 0C7.696 0 5.06006 1.09375 3.0749 3.07344C1.09521 5.05859 0.00146484 7.69453 0.00146484 10.5C0.00146484 13.3055 1.09521 15.9414 3.0749 17.9266C5.06006 19.9062 7.696 21 10.5015 21C13.3069 21 15.9429 19.9062 17.928 17.9266Z" fill="#142E55"/>
</svg>
