<svg width="48" height="41" viewBox="0 0 48 41" fill="none" xmlns="http://www.w3.org/2000/svg">
<path d="M24.742 39.1942C35.8055 39.1942 44.7742 30.4203 44.7742 19.5971C44.7742 8.77393 35.8055 0 24.742 0C13.6785 0 4.70972 8.77393 4.70972 19.5971C4.70972 30.4203 13.6785 39.1942 24.742 39.1942Z" fill="#E9EAEB"/>
<path d="M44.0322 13.7906H20.2903V31.9361C20.2903 33.5329 21.6258 34.8393 23.258 34.8393H33.8677L39.0612 40.0652C39.5064 40.5007 40.3225 40.2104 40.3225 39.5572V34.8393H44.0322C45.6645 34.8393 46.9999 33.5329 46.9999 31.9361V16.6939C46.9999 15.0971 45.6645 13.7906 44.0322 13.7906Z" fill="#94EBDF"/>
<path d="M20.2903 31.2103V31.9361C20.2903 33.5329 21.6258 34.8393 23.258 34.8393H33.8677L39.0612 40.0652C39.5064 40.5007 40.3225 40.2104 40.3225 39.5572V34.8393H44.0322C45.6645 34.8393 46.9999 33.5329 46.9999 31.9361V16.6939C46.9999 15.0971 45.6645 13.7906 44.0322 13.7906H37.3548" stroke="#142E55" stroke-width="1.2" stroke-miterlimit="10" stroke-linecap="round"/>
<path d="M3.96774 4.3551H31.4193C33.0516 4.3551 34.3871 5.66158 34.3871 7.25838V25.4039C34.3871 27.0007 33.0516 28.3071 31.4193 28.3071H13.3903L8.19677 33.533C7.75161 34.0411 6.93548 33.6782 6.93548 33.025V28.3071H3.96774C2.33548 28.3071 1 27.0007 1 25.4039V7.25838C1 5.66158 2.33548 4.3551 3.96774 4.3551Z" fill="white" stroke="#142E55" stroke-width="1.2" stroke-miterlimit="10" stroke-linejoin="round"/>
<path d="M26.2259 17.3473V15.315C26.2259 14.9521 25.9291 14.5166 25.5582 14.5166H24.4453C24.1485 14.5166 23.8517 14.3714 23.7775 14.1537C23.7033 13.9359 23.6291 13.7907 23.5549 13.573C23.4066 13.2827 23.4808 12.9923 23.7033 12.7746L24.4453 12.0488C24.742 11.7585 24.742 11.3955 24.4453 11.1052L22.9614 9.65358C22.6646 9.36325 22.2937 9.36325 21.9969 9.65358L21.2549 10.3794C21.0324 10.5971 20.7356 10.5971 20.4388 10.5246C20.2162 10.452 20.142 10.3794 19.9195 10.3068C19.6227 10.2342 19.5485 9.9439 19.5485 9.65358V8.63743C19.5485 8.27452 19.1033 7.98419 18.7324 7.98419H16.6549C16.284 7.98419 15.8388 8.27452 15.8388 8.63743V9.65358C15.8388 9.9439 15.6904 10.1616 15.4679 10.3068C15.2453 10.3794 15.0969 10.452 14.9485 10.5246C14.6517 10.6697 14.3549 10.5971 14.2066 10.3794L13.4646 9.65358C13.1679 9.36325 12.7969 9.36325 12.5001 9.65358L11.0162 11.1052C10.7195 11.3955 10.7195 11.7585 11.0162 12.0488L11.7582 12.8472C11.9808 13.0649 11.9808 13.3553 11.9066 13.6456C11.8324 13.8633 11.7582 13.9359 11.684 14.1537C11.6098 14.444 11.313 14.5166 11.0162 14.5166H9.90334C9.53237 14.5166 9.2356 14.9521 9.2356 15.315V17.3473C9.2356 17.7102 9.53237 18.1457 9.90334 18.1457H11.0162C11.313 18.1457 11.5356 18.2908 11.684 18.5812C11.7582 18.7989 11.8324 18.9441 11.9066 19.0892C12.0549 19.3796 11.9808 19.6699 11.7582 19.815L11.0162 20.5409C10.7195 20.8312 10.7195 21.1941 11.0162 21.4844L12.4259 22.8635C12.7227 23.1538 13.0937 23.1538 13.3904 22.8635L14.1324 22.0651C14.3549 21.8473 14.6517 21.8473 14.9485 21.9199C15.1711 21.9925 15.2453 22.0651 15.4679 22.1377C15.7646 22.2102 15.8388 22.5006 15.8388 22.7909V23.8796C15.8388 24.2425 16.284 24.5329 16.6549 24.5329H18.7324C19.1033 24.5329 19.5485 24.2425 19.5485 23.8796V22.7909C19.5485 22.5006 19.6969 22.2828 19.9195 22.1377C20.142 22.0651 20.2904 21.9925 20.4388 21.9199C20.7356 21.7748 21.0324 21.8473 21.1808 22.0651L21.9227 22.7909C22.2195 23.0812 22.5904 23.0812 22.8872 22.7909L24.2969 21.4118C24.5937 21.1215 24.5937 20.7586 24.2969 20.4683L23.5549 19.7425C23.3324 19.5247 23.2582 19.2344 23.4066 18.9441C23.4808 18.7989 23.5549 18.6537 23.6291 18.436C23.7033 18.1457 24.0001 18.0005 24.2969 18.0005H25.4098C25.9291 18.1457 26.2259 17.7102 26.2259 17.3473Z" fill="#94EBDF" stroke="#142E55" stroke-width="1.2" stroke-miterlimit="10"/>
<path d="M17.6935 18.8713C19.1276 18.8713 20.2902 17.734 20.2902 16.331C20.2902 14.9279 19.1276 13.7906 17.6935 13.7906C16.2593 13.7906 15.0967 14.9279 15.0967 16.331C15.0967 17.734 16.2593 18.8713 17.6935 18.8713Z" fill="white" stroke="#142E55" stroke-width="1.2" stroke-miterlimit="10" stroke-linejoin="round"/>
</svg>
