<svg width="46" height="44" viewBox="0 0 46 44" fill="none" xmlns="http://www.w3.org/2000/svg">
<path d="M13.6562 39.1742L8.12188 32.3316C7.54688 31.6114 6.68437 31.2512 5.75 31.2512C3.59375 31.2512 2.08438 32.5477 1.65312 35.3567C1.36562 37.6616 0.71875 42.7755 0.71875 42.7755H10.7812C10.7812 42.7755 14.5906 42.7755 16.5312 42.7755C19.4062 42.7755 19.4062 39.1742 19.4062 39.1742H13.6562Z" fill="#94EBDF"/>
<path d="M15.0938 32.6918C23.4298 32.6918 30.1875 25.9198 30.1875 17.5662C30.1875 9.21253 23.4298 2.44055 15.0938 2.44055C6.7577 2.44055 0 9.21253 0 17.5662C0 25.9198 6.7577 32.6918 15.0938 32.6918Z" fill="#E9EAEB"/>
<path d="M45.2812 23.3283V19.0067L41.3281 18.2864C41.0406 17.206 40.6094 16.2697 40.1062 15.3333L42.4062 12.0201L39.3875 8.99496L36.0813 11.2998C35.1469 10.7236 34.1406 10.3635 33.1344 10.0754L32.4156 6.11389H28.1031L27.3844 10.0754C26.3062 10.3635 25.3719 10.7956 24.4375 11.2998L21.1312 8.99496L17.9688 12.0201L20.2688 15.3333C19.6938 16.2697 19.3344 17.278 19.0469 18.2864L15.0938 19.0067V23.3283L19.0469 24.0486C19.3344 25.129 19.7656 26.0653 20.2688 27.0017L17.9688 30.3149L20.9875 33.34L24.2937 31.0352C25.2281 31.6114 26.2344 31.9715 27.2406 32.2596L27.9594 36.2211H32.2719L32.9906 32.2596C34.0688 31.9715 35.0031 31.5394 35.9375 31.0352L39.2437 33.34L42.2625 30.3149L39.9625 27.0017C40.5375 26.0653 40.8969 25.0569 41.1844 24.0486L45.2812 23.3283Z" fill="white"/>
<path d="M15.9563 36.2931L20.125 30.531H33.7813L28.0313 39.8945H22.2813" stroke="#142E55" stroke-width="1.2" stroke-miterlimit="10" stroke-linecap="round" stroke-linejoin="round"/>
<path d="M7.1875 42.7755H34.5" stroke="#142E55" stroke-width="1.2" stroke-miterlimit="10" stroke-linecap="round" stroke-linejoin="round"/>
<path d="M8.26562 28.3701C5.96562 28.3701 4.3125 26.5694 4.3125 24.3366V22.9681C4.3125 20.7352 5.96562 18.9346 8.26562 18.9346C10.5656 18.9346 12.2188 20.7352 12.2188 22.9681V24.3366C12.2188 26.5694 10.5656 28.3701 8.26562 28.3701Z" fill="white" stroke="#142E55" stroke-width="1.2" stroke-miterlimit="10"/>
<path d="M6.46875 37.7336L10.7812 42.7755C10.7812 42.7755 14.5906 42.7755 16.5312 42.7755C19.4062 42.7755 19.4062 39.1742 19.4062 39.1742H13.6562L8.12188 32.3316C7.54688 31.6114 6.68437 31.2512 5.75 31.2512C3.59375 31.2512 2.08437 32.5477 1.65312 35.3567C1.36562 37.6616 0.71875 42.7755 0.71875 42.7755" stroke="#142E55" stroke-width="1.2" stroke-miterlimit="10" stroke-linecap="round"/>
<path d="M30.1875 24.7688C32.1723 24.7688 33.7812 23.1565 33.7812 21.1675C33.7812 19.1785 32.1723 17.5662 30.1875 17.5662C28.2027 17.5662 26.5938 19.1785 26.5938 21.1675C26.5938 23.1565 28.2027 24.7688 30.1875 24.7688Z" stroke="#142E55" stroke-width="1.2" stroke-miterlimit="10"/>
<path d="M36.0094 31.1072L39.3156 33.412L42.3344 30.3869L40.0344 27.0737C40.6094 26.1373 40.9688 25.129 41.2563 24.1206L45.2094 23.4003V19.0787L41.2563 18.3584C40.9688 17.278 40.5375 16.3417 40.0344 15.4053L42.4062 12.0201L39.3875 8.99496L36.0813 11.2998C35.1469 10.7236 34.1406 10.3635 33.1344 10.0754L32.4156 6.11389H28.1031L27.3844 10.0754C26.3062 10.3635 25.3719 10.7956 24.4375 11.2998L21.1312 8.99496L17.9688 12.0201L20.2688 15.3333C19.6938 16.2697 19.3344 17.278 19.0469 18.2864L15.0938 19.0067V23.3283L19.0469 24.0486C19.3344 25.129 19.7656 26.0653 20.2688 27.0017" stroke="#142E55" stroke-width="1.2" stroke-miterlimit="10" stroke-linecap="round" stroke-linejoin="round"/>
<path d="M12.2188 4.60132L10.7812 6.04185" stroke="#48C8B7" stroke-width="2" stroke-miterlimit="10"/>
<path d="M15.8125 1L14.375 2.44054" stroke="#48C8B7" stroke-width="2" stroke-miterlimit="10"/>
<path d="M14.375 4.60132L15.8125 6.04185" stroke="#48C8B7" stroke-width="2" stroke-miterlimit="10"/>
<path d="M10.7812 1L12.2188 2.44054" stroke="#48C8B7" stroke-width="2" stroke-miterlimit="10"/>
<path d="M8.625 8.92297V10.3635" stroke="#48C8B7" stroke-width="2" stroke-miterlimit="10"/>
<path d="M8.625 11.8041V13.2446" stroke="#48C8B7" stroke-width="2" stroke-miterlimit="10"/>
<path d="M7.90625 11.0837H6.46875" stroke="#48C8B7" stroke-width="2" stroke-miterlimit="10"/>
<path d="M10.7812 11.0837H9.34375" stroke="#48C8B7" stroke-width="2" stroke-miterlimit="10"/>
</svg>
