<svg width="43" height="44" viewBox="0 0 43 44" fill="none" xmlns="http://www.w3.org/2000/svg">
<path d="M0 15.0159C0 6.68889 6.68889 0 15.0159 0C23.3429 0 30.0317 6.68889 30.0317 15.0159C30.0317 23.3429 23.3429 30.0317 15.0159 30.0317C6.68889 30.0317 0 23.3429 0 15.0159Z" fill="#E9EAEB"/>
<path d="M9.55553 13.6508C6.3476 13.6508 4.09521 14.6746 4.09521 17.7461V23.8889C4.09521 25.3222 5.39204 26.6191 6.82537 26.6191H7.50791V38.9048H11.6032V26.6191C11.6032 26.6191 11.6032 26.6191 12.2857 26.6191C12.9682 27.3016 14.1285 28.8715 14.4016 29.281C14.8111 29.9635 15.0159 30.373 15.0159 30.9873V35.4921L19.1111 34.8095V28.9397C19.1111 28.3254 18.9063 27.7111 18.4968 27.2334L16.1079 24.2984C15.8349 23.8889 15.6984 23.4794 15.6984 23.0016V17.7461L20.4762 17.0635C22.4555 16.654 23.8889 15.0159 23.8889 13.6508H9.55553Z" fill="white"/>
<path d="M11.6033 38.9047V26.619C11.6033 26.619 11.6033 26.619 12.2858 26.619C12.9684 27.3016 14.1287 28.8714 14.4017 29.2809C14.8112 29.9635 15.016 30.373 15.016 30.9873V35.492" stroke="#142E55" stroke-width="1.2" stroke-miterlimit="10" stroke-linejoin="round"/>
<path d="M22.5239 0V13.6508" stroke="#142E55" stroke-width="1.2" stroke-miterlimit="10"/>
<path d="M22.5239 15.6984V31.3968" stroke="#142E55" stroke-width="1.2" stroke-miterlimit="10"/>
<path d="M0.682617 43L6.14293 38.9048H11.6033L15.0159 35.4921L19.1112 34.8095L22.5239 31.3969L27.3699 34.4683" stroke="#142E55" stroke-width="1.2" stroke-miterlimit="10" stroke-linecap="round" stroke-linejoin="round"/>
<path d="M19.1111 42.3174L23.2063 38.9047H27.3016L31.3968 34.127L34.8095 36.8571H37.5397L41.6349 40.2698" stroke="#142E55" stroke-width="1.2" stroke-miterlimit="10" stroke-linecap="round" stroke-linejoin="round"/>
<path d="M37.5397 10.9206H30.0317V5.46033H37.5397L35.4921 8.19049L37.5397 10.9206Z" fill="#94EBDF" stroke="#142E55" stroke-width="1.2" stroke-miterlimit="10"/>
<path d="M31.3969 2.73016H22.5239V8.19048H31.3969V2.73016Z" fill="#94EBDF" stroke="#142E55" stroke-width="1.2" stroke-miterlimit="10"/>
<path d="M11.2619 11.6032C13.0365 11.6032 14.3333 10.1698 14.3333 8.39522V7.30315C14.3333 5.52855 13.0365 4.09521 11.2619 4.09521C9.48726 4.09521 8.19043 5.52855 8.19043 7.30315V8.39522C8.19043 10.1698 9.48726 11.6032 11.2619 11.6032Z" fill="white" stroke="#142E55" stroke-width="1.2" stroke-miterlimit="10"/>
<path d="M7.50806 17.746V38.9048" stroke="#142E55" stroke-width="1.2" stroke-miterlimit="10"/>
<path d="M19.1111 34.8095V28.9397C19.1111 28.3254 18.9063 27.7111 18.4968 27.2334L16.1079 24.2984C15.8349 23.8889 15.6984 23.4794 15.6984 23.0016V17.7461L20.4762 17.0635C22.4555 16.654 23.8889 15.0159 23.8889 13.6508C22.7968 13.6508 10.7841 13.6508 9.55553 13.6508C6.3476 13.6508 4.09521 14.6746 4.09521 17.7461V23.8889C4.09521 25.3222 5.39204 26.6191 6.82537 26.6191H7.50791" stroke="#142E55" stroke-width="1.2" stroke-miterlimit="10" stroke-linejoin="round"/>
<path d="M36.1746 21.1587L34.8096 22.5238" stroke="#48C8B7" stroke-width="1.2" stroke-miterlimit="10"/>
<path d="M39.5872 17.746L38.2222 19.1111" stroke="#48C8B7" stroke-width="1.2" stroke-miterlimit="10"/>
<path d="M38.2222 21.1587L39.5872 22.5238" stroke="#48C8B7" stroke-width="1.2" stroke-miterlimit="10"/>
<path d="M34.8096 17.746L36.1746 19.1111" stroke="#48C8B7" stroke-width="1.2" stroke-miterlimit="10"/>
<path d="M32.0793 25.254V29.3493" stroke="#48C8B7" stroke-width="1.2" stroke-miterlimit="10"/>
<path d="M30.0317 27.3016H34.127" stroke="#48C8B7" stroke-width="1.2" stroke-miterlimit="10"/>
</svg>
