<svg width="23" height="15" viewBox="0 0 23 15" fill="none" xmlns="http://www.w3.org/2000/svg">
<path d="M17.8501 11.8205C16.5701 11.8205 15.9046 12.2884 15.3313 12.6915C15.0804 12.8679 14.8655 13.0185 14.6087 13.1268C14.3542 13.2342 14.0545 13.3014 13.6373 13.3014C13.2201 13.3014 12.9205 13.2342 12.666 13.1268C12.4093 13.0185 12.1944 12.8679 11.9435 12.6915C11.3703 12.2882 10.7048 11.8205 9.42479 11.8205C8.14497 11.8205 7.47945 12.2884 6.90622 12.6915C6.65532 12.8679 6.44048 13.0185 6.18373 13.1268C5.92925 13.2342 5.62964 13.3014 5.21248 13.3014C4.79531 13.3014 4.4957 13.2342 4.24122 13.1268C3.98448 13.0185 3.76963 12.8679 3.51873 12.6915L3.51872 12.6915L3.51848 12.6913C2.94515 12.2883 2.27964 11.8205 1 11.8205C0.944772 11.8205 0.9 11.8652 0.9 11.9205V13.1546C0.9 13.2098 0.944772 13.2546 1 13.2546C1.41725 13.2546 1.71685 13.3218 1.97131 13.4292C2.22803 13.5376 2.44283 13.6882 2.69372 13.8647L2.69375 13.8647L2.6939 13.8648C3.26726 14.2679 3.93261 14.7356 5.21248 14.7356C6.49229 14.7356 7.1578 14.2678 7.73105 13.8647L7.73107 13.8647C7.98196 13.6882 8.1968 13.5376 8.45354 13.4292C8.70802 13.3218 9.00762 13.2546 9.42479 13.2546C9.84204 13.2546 10.1416 13.3218 10.3961 13.4292C10.6529 13.5376 10.8677 13.6882 11.1187 13.8647L11.1187 13.8647C11.6919 14.2678 12.3575 14.7356 13.6373 14.7356C14.9172 14.7356 15.5828 14.2678 16.1562 13.8647L16.1562 13.8647C16.4071 13.6883 16.6219 13.5377 16.8787 13.4293C17.1332 13.3219 17.4328 13.2546 17.8501 13.2546C18.2673 13.2546 18.5669 13.3218 18.8214 13.4292C19.0781 13.5376 19.293 13.6882 19.544 13.8647L19.6015 13.7829L19.544 13.8647C20.1172 14.2678 20.7827 14.7356 22.0627 14.7356C22.1179 14.7356 22.1627 14.6908 22.1627 14.6356V13.4014C22.1627 13.3462 22.1179 13.3014 22.0627 13.3014C21.6455 13.3014 21.3458 13.2342 21.0913 13.1268C20.8345 13.0185 20.6197 12.8679 20.3688 12.6915L20.3113 12.7733L20.3688 12.6915L20.3685 12.6913C19.7952 12.2883 19.1297 11.8205 17.8501 11.8205Z" fill="#142E55" stroke="#142E55" stroke-width="0.2" stroke-linejoin="round"/>
<path d="M2.69374 6.58375C3.26714 6.98698 3.9325 7.45476 5.21248 7.45476C6.4923 7.45476 7.15782 6.98681 7.73105 6.58375C7.98194 6.40734 8.19679 6.25673 8.45354 6.1484C8.70802 6.04101 9.00762 5.97379 9.42479 5.97379C9.84204 5.97379 10.1416 6.04101 10.3961 6.1484C10.6529 6.25673 10.8677 6.40733 11.1187 6.58374C11.6919 6.98698 12.3575 7.45476 13.6373 7.45476C14.9171 7.45476 15.5826 6.98695 16.1559 6.58393L16.1562 6.58376L16.1562 6.58375C16.4071 6.40734 16.6219 6.25673 16.8787 6.1484C17.1332 6.04101 17.4328 5.97379 17.8501 5.97379C18.2673 5.97379 18.5669 6.04101 18.8214 6.1484C19.0781 6.25673 19.293 6.40734 19.544 6.58376C20.1172 6.987 20.7828 7.45476 22.0627 7.45476C22.1179 7.45476 22.1627 7.40999 22.1627 7.35476V6.12062C22.1627 6.06539 22.1179 6.02062 22.0627 6.02062C21.6455 6.02062 21.3458 5.95336 21.0913 5.84594C20.8346 5.73757 20.6197 5.58692 20.3688 5.4105L20.3113 5.4923L20.3688 5.41049C19.7954 5.00743 19.1299 4.53965 17.8501 4.53965C16.5701 4.53965 15.9046 5.00742 15.3313 5.41049C15.0804 5.58692 14.8655 5.73756 14.6087 5.84594C14.3542 5.95336 14.0545 6.02062 13.6373 6.02062C13.2201 6.02062 12.9205 5.95336 12.666 5.84594C12.4093 5.73757 12.1944 5.58692 11.9435 5.4105L11.886 5.4923L11.9435 5.4105C11.3703 5.00743 10.7048 4.53965 9.42479 4.53965C8.14498 4.53965 7.47946 5.00743 6.90622 5.4105C6.65532 5.58692 6.44047 5.73757 6.18372 5.84594C5.92924 5.95336 5.62964 6.02062 5.21248 6.02062C4.79532 6.02062 4.49571 5.95336 4.24123 5.84594C3.98448 5.73757 3.76964 5.58692 3.51873 5.4105L3.51872 5.41049C2.94533 5.00743 2.27981 4.53965 1 4.53965C0.944772 4.53965 0.9 4.58442 0.9 4.63965V5.87379C0.9 5.92902 0.944772 5.97379 1 5.97379C1.41725 5.97379 1.71685 6.04101 1.97131 6.14839C2.22804 6.25673 2.44284 6.40733 2.69374 6.58375ZM2.69374 6.58375L2.75126 6.50195M2.69374 6.58375L2.75126 6.50195M2.75126 6.50195L2.7512 6.50191C2.25211 6.15097 1.85792 5.87379 1 5.87379L11.1762 6.50195L11.1759 6.50175C10.6768 6.15089 10.2826 5.87379 9.42479 5.87379C8.567 5.87379 8.17265 6.15099 7.67353 6.50195L7.6734 6.50204C7.10505 6.90167 6.46067 7.35476 5.21248 7.35476C3.96403 7.35476 3.3198 6.90176 2.75126 6.50195Z" fill="#142E55" stroke="#142E55" stroke-width="0.2" stroke-linejoin="round"/>
<path d="M3.51873 9.05167L3.51872 9.05166C2.94533 8.6486 2.27981 8.18082 1 8.18082C0.944772 8.18082 0.9 8.22559 0.9 8.28082V9.51497C0.9 9.57019 0.944772 9.61497 1 9.61497C1.41725 9.61497 1.71685 9.68219 1.97131 9.78957C2.22804 9.8979 2.44284 10.0485 2.69374 10.2249L2.69375 10.2249L2.69422 10.2253C3.26749 10.6282 3.93284 11.0959 5.21248 11.0959C6.4923 11.0959 7.15782 10.628 7.73105 10.2249C7.98194 10.0485 8.19679 9.8979 8.45354 9.78957C8.70802 9.68219 9.00762 9.61497 9.42479 9.61497C9.84204 9.61497 10.1416 9.68219 10.3961 9.78957C10.6529 9.89791 10.8677 10.0485 11.1187 10.2249C11.6919 10.628 12.3575 11.0959 13.6373 11.0959C14.9171 11.0959 15.5826 10.6281 16.1559 10.2251L16.1562 10.2249L16.1562 10.2249C16.4071 10.0485 16.6219 9.89791 16.8787 9.78957C17.1332 9.68219 17.4328 9.61497 17.8501 9.61497C18.2673 9.61497 18.5669 9.68219 18.8214 9.78957C19.0781 9.89791 19.293 10.0485 19.544 10.2249C20.1172 10.628 20.7827 11.0959 22.0627 11.0959C22.1179 11.0959 22.1627 11.0512 22.1627 10.9959V9.76179C22.1627 9.70657 22.1179 9.66179 22.0627 9.66179C21.6455 9.66179 21.3458 9.59453 21.0913 9.48711C20.8346 9.37874 20.6197 9.2281 20.3688 9.05167L20.3113 9.13347L20.3688 9.05166C19.7954 8.6486 19.1299 8.18082 17.8501 8.18082C16.5701 8.18082 15.9046 8.64859 15.3313 9.05166C15.0804 9.22809 14.8655 9.37874 14.6087 9.48711C14.3542 9.59453 14.0545 9.66179 13.6373 9.66179C13.2201 9.66179 12.9205 9.59453 12.666 9.48712C12.4093 9.37874 12.1944 9.2281 11.9435 9.05167L11.886 9.13347L11.9435 9.05167C11.3703 8.6486 10.7048 8.18082 9.42479 8.18082C8.14498 8.18082 7.47946 8.6486 6.90622 9.05167C6.65532 9.2281 6.44047 9.37874 6.18372 9.48712C5.92924 9.59453 5.62964 9.66179 5.21248 9.66179C4.79532 9.66179 4.49571 9.59453 4.24123 9.48712C3.98448 9.37874 3.76964 9.2281 3.51873 9.05167Z" fill="#142E55" stroke="#142E55" stroke-width="0.2" stroke-linejoin="round"/>
<path d="M0.900488 1C0.900488 0.944772 0.94526 0.9 1.00049 0.9C2.2803 0.9 2.94582 1.36778 3.51922 1.77101C3.51922 1.77101 3.51923 1.77101 3.51923 1.77101L0.900488 1ZM0.900488 1V2.23414C0.900488 2.28937 0.94526 2.33414 1.00049 2.33414M0.900488 1L1.00049 2.33414M1.00049 2.33414C1.41774 2.33414 1.71734 2.40137 1.9718 2.50875M1.00049 2.33414L1.9718 2.50875M1.9718 2.50875C2.22852 2.61708 2.44333 2.76768 2.69423 2.9441L1.9718 2.50875ZM15.3318 1.77102C15.0808 1.94743 14.866 2.09803 14.6092 2.20637C14.3547 2.31375 14.055 2.38097 13.6378 2.38097C13.2206 2.38097 12.921 2.31375 12.6665 2.20637C12.4098 2.09804 12.1949 1.94743 11.944 1.77102C11.3708 1.36778 10.7053 0.9 9.42528 0.9C8.14548 0.9 7.47996 1.36777 6.90671 1.77101C6.65581 1.94743 6.44096 2.09803 6.18422 2.20637C5.92974 2.31375 5.63013 2.38097 5.21297 2.38097C4.7958 2.38097 4.49619 2.31375 4.24171 2.20637L15.3318 1.77102Z" fill="#142E55" stroke="#142E55" stroke-width="0.2" stroke-linejoin="round"/>
</svg>
