<svg width="45" height="41" viewBox="0 0 45 41" fill="none" xmlns="http://www.w3.org/2000/svg">
<path d="M29.018 30.1732C37.3501 30.1732 44.1046 23.4187 44.1046 15.0866C44.1046 6.75451 37.3501 0 29.018 0C20.6859 0 13.9314 6.75451 13.9314 15.0866C13.9314 23.4187 20.6859 30.1732 29.018 30.1732Z" fill="#E9EAEB"/>
<path d="M36.6332 37.07L27.7967 28.2335L25.4978 30.2451L34.4779 39.2252C35.0527 39.7999 35.8429 39.8718 36.274 39.5126L36.9205 38.866C37.2797 38.4349 37.2079 37.6447 36.6332 37.07Z" fill="#94EBDF"/>
<path d="M27.7967 28.2335L36.6332 37.07C37.2079 37.6447 37.2797 38.4349 36.9205 38.866L36.274 39.5126C35.8429 39.9436 35.0527 39.7999 34.4779 39.2252L25.4978 30.2451" stroke="#142E55" stroke-width="1.2" stroke-miterlimit="10"/>
<path d="M20.7562 13.7222C15.7992 13.7222 11.7761 17.7453 11.7761 22.7023C11.7761 27.5875 15.7992 31.6106 20.7562 31.6106C25.7133 31.6106 29.7364 27.5875 29.7364 22.6305C29.7364 17.7453 25.7133 13.7222 20.7562 13.7222Z" fill="white" stroke="#142E55" stroke-width="1.2" stroke-miterlimit="10"/>
<path d="M17.5233 25.8629H19.6786C20.1096 25.8629 20.397 25.5755 20.397 25.1445V20.1156C20.397 19.6846 20.1096 19.3972 19.6786 19.3972H17.5233C17.0923 19.3972 16.8049 19.6846 16.8049 20.1156V25.1445C16.8049 25.5755 17.0923 25.8629 17.5233 25.8629Z" stroke="#142E55" stroke-width="1.2" stroke-miterlimit="10"/>
<path d="M8.18408 19.3972V25.8629" stroke="#142E55" stroke-width="1.2" stroke-miterlimit="10" stroke-linecap="round"/>
<path d="M1.71841 25.8629H3.87364C4.30469 25.8629 4.59205 25.5755 4.59205 25.1445V20.1156C4.59205 19.6846 4.30469 19.3972 3.87364 19.3972H1.71841C1.28736 19.3972 1 19.6846 1 20.1156V25.1445C1 25.5755 1.28736 25.8629 1.71841 25.8629Z" stroke="#142E55" stroke-width="1.2" stroke-miterlimit="10"/>
<path d="M1 30.1735V36.6392" stroke="#142E55" stroke-width="1.2" stroke-miterlimit="10" stroke-linecap="round"/>
<path d="M12.4944 31.61V36.6389" stroke="#142E55" stroke-width="1.2" stroke-miterlimit="10" stroke-linecap="round"/>
<path d="M7.46568 36.6392H5.31045C4.87941 36.6392 4.59204 36.3518 4.59204 35.9207V30.8919C4.59204 30.4608 4.87941 30.1735 5.31045 30.1735H7.46568C7.89673 30.1735 8.18409 30.4608 8.18409 30.8919V35.9207C8.18409 36.3518 7.82489 36.6392 7.46568 36.6392Z" stroke="#142E55" stroke-width="1.2" stroke-miterlimit="10"/>
<path d="M40.5127 30.1735V36.6392" stroke="#142E55" stroke-width="1.2" stroke-miterlimit="10" stroke-linecap="round"/>
<path d="M37.6389 33.7655V30.8919C37.6389 30.4608 37.3516 30.1735 36.9205 30.1735H34.7653C34.3342 30.1735 34.0469 30.4608 34.0469 30.8919" stroke="#142E55" stroke-width="1.2" stroke-miterlimit="10" stroke-linecap="round"/>
<path d="M20.397 33.7655V35.9207C20.397 36.3518 20.1096 36.6391 19.6786 36.6391H17.5233C17.0923 36.6391 16.8049 36.3518 16.8049 35.9207V33.7655" stroke="#142E55" stroke-width="1.2" stroke-miterlimit="10" stroke-linecap="round"/>
<path d="M23.9893 33.7655V35.9207C23.9893 36.3518 24.2766 36.6391 24.7077 36.6391H26.8629C27.2939 36.6391 27.5813 36.3518 27.5813 35.9207" stroke="#142E55" stroke-width="1.2" stroke-miterlimit="10" stroke-linecap="round"/>
<path d="M1 15.8052V9.33948" stroke="#142E55" stroke-width="1.2" stroke-miterlimit="10" stroke-linecap="round"/>
<path d="M12.4944 14.3683V9.33948" stroke="#142E55" stroke-width="1.2" stroke-miterlimit="10" stroke-linecap="round"/>
<path d="M7.46568 9.33948H5.31045C4.87941 9.33948 4.59204 9.62684 4.59204 10.0579V15.0868C4.59204 15.5178 4.87941 15.8052 5.31045 15.8052H7.46568C7.89673 15.8052 8.18409 15.5178 8.18409 15.0868V10.0579C8.18409 9.62684 7.82489 9.33948 7.46568 9.33948Z" stroke="#142E55" stroke-width="1.2" stroke-miterlimit="10"/>
<path d="M32.6101 15.8052V9.33948" stroke="#142E55" stroke-width="1.2" stroke-miterlimit="10" stroke-linecap="round"/>
<path d="M21.1155 11.4947V10.0579C21.1155 9.62684 20.8281 9.33948 20.3971 9.33948H18.2418C17.8108 9.33948 17.5234 9.62684 17.5234 10.0579V11.4947" stroke="#142E55" stroke-width="1.2" stroke-miterlimit="10" stroke-linecap="round"/>
<path d="M28.2996 13.6499V10.0579C28.2996 9.62684 28.0122 9.33948 27.5812 9.33948H25.4259C24.9949 9.33948 24.7075 9.62684 24.7075 10.0579V11.4947" stroke="#142E55" stroke-width="1.2" stroke-miterlimit="10" stroke-linecap="round"/>
<path d="M40.5127 19.3972V25.8629" stroke="#142E55" stroke-width="1.2" stroke-miterlimit="10" stroke-linecap="round"/>
<path d="M34.0468 25.8629H36.202C36.6331 25.8629 36.9204 25.5755 36.9204 25.1445V20.1156C36.9204 19.6846 36.6331 19.3972 36.202 19.3972H34.0468C33.6157 19.3972 33.3284 19.6846 33.3284 20.1156V25.1445C33.3284 25.5755 33.6157 25.8629 34.0468 25.8629Z" stroke="#142E55" stroke-width="1.2" stroke-miterlimit="10"/>
<path d="M37.6391 15.8052H39.7943C40.2253 15.8052 40.5127 15.5178 40.5127 15.0868V10.0579C40.5127 9.62684 40.2253 9.33948 39.7943 9.33948H37.6391C37.208 9.33948 36.9207 9.62684 36.9207 10.0579V15.0868C36.9207 15.5178 37.208 15.8052 37.6391 15.8052Z" stroke="#142E55" stroke-width="1.2" stroke-miterlimit="10"/>
<path d="M23.9893 19.3972V25.8629" stroke="#142E55" stroke-width="1.2" stroke-miterlimit="10" stroke-linecap="round"/>
</svg>
