<svg width="21" height="24" viewBox="0 0 21 24" fill="none" xmlns="http://www.w3.org/2000/svg">
<path d="M17.375 7.8C16.9442 7.9125 16.4697 7.96875 15.9703 7.96875C13.9038 7.96875 12.2244 6.91875 12.2244 5.625C12.2244 4.33125 13.9038 3.28125 15.9703 3.28125C16.4697 3.28125 16.9442 3.34375 17.375 3.45C16.0015 3.8 15.0338 4.6375 15.0338 5.625C15.0338 6.6125 16.0015 7.45 17.375 7.8ZM3.79611 13.2188C3.79611 12.2375 4.7638 11.3938 6.1373 11.0438C5.70652 10.9313 5.23204 10.875 4.73259 10.875C2.6661 10.875 0.986694 11.925 0.986694 13.2188C0.986694 14.5125 2.6661 15.5625 4.73259 15.5625C5.23204 15.5625 5.70652 15.5 6.1373 15.3938C4.7638 15.0438 3.79611 14.2 3.79611 13.2188Z" fill="#CEE1F2"/>
<path d="M15.9701 8.90625C13.3418 8.90625 11.2878 7.4625 11.2878 5.625C11.2878 3.7875 13.3418 2.34375 15.9701 2.34375C18.5985 2.34375 20.6525 3.7875 20.6525 5.625C20.6525 7.4625 18.5923 8.90625 15.9701 8.90625ZM15.9701 4.21875C15.1523 4.21875 14.3719 4.41875 13.8162 4.7625C13.3979 5.025 13.1607 5.3375 13.1607 5.625C13.1607 5.9125 13.3979 6.225 13.8162 6.4875C14.3719 6.83125 15.1523 7.03125 15.9701 7.03125C16.788 7.03125 17.5684 6.83125 18.124 6.4875C18.5423 6.225 18.7795 5.9125 18.7795 5.625C18.7795 5.3375 18.5423 5.025 18.124 4.7625C17.5684 4.41875 16.7817 4.21875 15.9701 4.21875ZM20.2155 22.6938C20.6338 22.3875 20.7274 21.8063 20.4215 21.3875C20.1156 20.9688 19.535 20.875 19.1167 21.175C17.3811 22.4313 14.4593 22.4313 12.7237 21.175C12.3054 20.8688 11.7185 20.9625 11.4189 21.3875C11.113 21.8063 11.2066 22.3938 11.6311 22.6938C12.7924 23.5313 14.3157 24 15.9264 24C17.5372 24 19.0605 23.5375 20.2155 22.6938ZM20.2155 18.9438C20.6338 18.6375 20.7274 18.0563 20.4215 17.6375C20.1156 17.2188 19.535 17.125 19.1167 17.425C17.3811 18.6813 14.4593 18.6813 12.7237 17.425C12.3054 17.1188 11.7185 17.2125 11.4189 17.6375C11.113 18.0563 11.2066 18.6438 11.6311 18.9438C12.7924 19.7813 14.3157 20.25 15.9264 20.25C17.5372 20.25 19.0605 19.7875 20.2155 18.9438ZM20.2155 15.15C20.6338 14.8438 20.7274 14.2625 20.4215 13.8438C20.1156 13.425 19.535 13.3313 19.1167 13.6313C17.3811 14.8875 14.4593 14.8875 12.7237 13.6313C12.3054 13.325 11.7185 13.4188 11.4189 13.8438C11.113 14.2625 11.2066 14.85 11.6311 15.15C12.7924 15.9875 14.3157 16.4563 15.9264 16.4563C17.5372 16.4563 19.0605 15.9875 20.2155 15.15ZM20.2155 11.35C20.6338 11.0438 20.7274 10.4625 20.4215 10.0438C20.1156 9.625 19.535 9.53125 19.1167 9.83125C17.3811 11.0875 14.4593 11.0875 12.7237 9.83125C12.3054 9.525 11.7185 9.61875 11.4189 10.0438C11.113 10.4625 11.2066 11.05 11.6311 11.35C12.7924 12.1875 14.3157 12.6563 15.9264 12.6563C17.5372 12.6563 19.0605 12.1938 20.2155 11.35ZM4.73245 16.5C2.10408 16.5 0.0500768 15.0563 0.0500768 13.2188C0.0500768 11.3813 2.10408 9.9375 4.73245 9.9375C7.36081 9.9375 9.41481 11.3813 9.41481 13.2188C9.41481 15.0563 7.35457 16.5 4.73245 16.5ZM4.73245 11.8125C3.91459 11.8125 3.1342 12.0125 2.57856 12.3563C2.16026 12.6188 1.92302 12.9313 1.92302 13.2188C1.92302 13.5063 2.16026 13.8188 2.57856 14.0813C3.1342 14.425 3.91459 14.625 4.73245 14.625C5.5503 14.625 6.33069 14.425 6.88633 14.0813C7.30463 13.8188 7.54187 13.5063 7.54187 13.2188C7.54187 12.9313 7.30463 12.6188 6.88633 12.3563C6.33069 12.0125 5.54406 11.8125 4.73245 11.8125ZM8.97779 22.6938C9.39608 22.3875 9.48973 21.8063 9.18382 21.3875C8.8779 20.9688 8.29729 20.875 7.879 21.175C6.1434 22.4313 3.2216 22.4313 1.486 21.175C1.06771 20.8688 0.480855 20.9625 0.181183 21.3875C-0.124732 21.8063 -0.0310843 22.3938 0.39345 22.6938C1.55468 23.5313 3.07801 24 4.68874 24C6.29948 24 7.82281 23.5375 8.97779 22.6938ZM8.97779 18.9438C9.39608 18.6375 9.48973 18.0563 9.18382 17.6375C8.8779 17.2188 8.29729 17.125 7.879 17.425C6.1434 18.6813 3.2216 18.6813 1.486 17.425C1.06771 17.1188 0.480855 17.2125 0.181183 17.6375C-0.124732 18.0563 -0.0310843 18.6438 0.39345 18.9438C1.55468 19.7813 3.07801 20.25 4.68874 20.25C6.29948 20.25 7.82281 19.7875 8.97779 18.9438Z" fill="#142E55"/>
<path d="M1.64191 4.3125C1.40467 4.3125 1.16743 4.225 0.986383 4.04375C0.618037 3.68125 0.611794 3.0875 0.973897 2.71875L2.82187 0.83125L2.82811 0.825C3.35254 0.29375 4.05802 0 4.80719 0C5.55637 0 6.26185 0.29375 6.79252 0.825L8.67171 2.7125C9.03381 3.08125 9.03381 3.675 8.67171 4.0375C8.30336 4.40625 7.71026 4.4 7.34816 4.0375L5.46273 2.15C5.28792 1.975 5.05692 1.875 4.80719 1.875C4.55747 1.875 4.32647 1.96875 4.15166 2.14375L2.30993 4.03125C2.12888 4.21875 1.8854 4.3125 1.64191 4.3125ZM5.66875 7.59375V4.64375C5.66875 4.125 5.25046 3.70625 4.73228 3.70625C4.2141 3.70625 3.7958 4.125 3.7958 4.64375V7.6C3.7958 8.11875 4.2141 8.5375 4.73228 8.5375C5.25046 8.53125 5.66875 8.1125 5.66875 7.59375Z" fill="#48C8B7"/>
</svg>
