<svg width="59" height="64" viewBox="0 0 59 64" fill="none" xmlns="http://www.w3.org/2000/svg">
<path d="M29.5 24.8142C25.2763 24.8142 21.8519 28.279 21.8519 32.5525C21.8519 36.8264 25.2763 40.2907 29.5 40.2907C33.7242 40.2907 37.1481 36.8264 37.1481 32.5525C37.1433 28.2812 33.7221 24.819 29.5 24.8142ZM29.5 38.0798C26.4831 38.0798 24.037 35.6055 24.037 32.5525C24.037 29.5 26.4831 27.0251 29.5 27.0251C32.5174 27.0251 34.963 29.5 34.963 32.5525C34.9598 35.6038 32.5158 38.0766 29.5 38.0798Z" fill="#0063D7"/>
<path d="M6.55556 21.4978H8.74074V19.2869H5.46296C4.85958 19.2869 4.37037 19.7818 4.37037 20.3923V23.7087H6.55556V21.4978Z" fill="#0063D7"/>
<path d="M6.55556 41.3962H4.37037V44.7126C4.37037 45.3236 4.85958 45.8181 5.46296 45.8181H8.74074V43.6071H6.55556V41.3962Z" fill="#0063D7"/>
<path d="M0 15.9704V49.1345C0 49.7455 0.489213 50.24 1.09259 50.24H57.9074C58.5113 50.24 59 49.7455 59 49.1345V15.9704C59 15.36 58.5113 14.865 57.9074 14.865H1.09259C0.489213 14.865 0 15.36 0 15.9704ZM2.18519 17.0759H56.8148V48.029H2.18519V17.0759Z" fill="#0063D7"/>
<path d="M53.537 27.0251C49.9184 27.0219 46.9852 24.0542 46.9815 20.3923C46.9815 19.7818 46.4928 19.2869 45.8889 19.2869H13.1111C12.5077 19.2869 12.0185 19.7818 12.0185 20.3923C12.0153 24.0542 9.08218 27.0219 5.46296 27.0251C4.85958 27.0251 4.37037 27.5201 4.37037 28.1306V36.9743C4.37037 37.5854 4.85958 38.0798 5.46296 38.0798C9.08218 38.0836 12.0153 41.0513 12.0185 44.7126C12.0185 45.3236 12.5077 45.8181 13.1111 45.8181H45.8889C46.4928 45.8181 46.9815 45.3236 46.9815 44.7126C46.9852 41.0513 49.9184 38.0836 53.537 38.0798C54.141 38.0798 54.6296 37.5854 54.6296 36.9743V28.1306C54.6296 27.5201 54.141 27.0251 53.537 27.0251ZM52.4444 35.9374C48.4865 36.4491 45.3698 39.6025 44.8641 43.6071H14.136C13.6302 39.6025 10.5141 36.4491 6.55556 35.9374V29.1675C10.5141 28.6558 13.6302 25.5029 14.136 21.4978H44.8641C45.3698 25.5029 48.4865 28.6558 52.4444 29.1675V35.9374Z" fill="#0063D7"/>
<path d="M53.537 19.2869H50.2593V21.4978H52.4444V23.7087H54.6296V20.3923C54.6296 19.7818 54.1409 19.2869 53.537 19.2869Z" fill="#0063D7"/>
<path d="M52.4444 43.6071H50.2593V45.8181H53.537C54.1409 45.8181 54.6296 45.3236 54.6296 44.7126V41.3962H52.4444V43.6071Z" fill="#0063D7"/>
<path d="M14.75 6.6992L15.8426 8.61164C23.2736 4.27613 32.2859 3.72448 40.1795 7.12131L35.5674 9.45369L36.5442 11.4325L43.0998 8.11612C43.3601 7.98657 43.5586 7.75663 43.6514 7.47864C43.7443 7.20012 43.724 6.89568 43.5949 6.63281L40.3171 0L38.3613 0.988336L40.2184 4.74682C31.8767 1.45093 22.5064 2.16883 14.75 6.6992Z" fill="#0063D7"/>
<path d="M43.1574 57.3008L42.0648 55.3884C34.6343 59.7233 25.6226 60.2755 17.7296 56.8787L22.3416 54.5458L21.3648 52.5669L14.8092 55.8833C14.2688 56.1565 14.0495 56.8209 14.32 57.3672L17.5978 64L19.553 63.0117L17.6959 59.2532C26.036 62.5469 35.4036 61.829 43.1574 57.3008Z" fill="#0063D7"/>
</svg>
