<svg width="24" height="23" viewBox="0 0 24 23" fill="none" xmlns="http://www.w3.org/2000/svg">
<path d="M4.53333 15.5086H3.73333V14.0629H4.6C5.13333 14.0629 5.53333 14.1943 5.53333 14.7857C5.53333 15.3771 5.06667 15.5086 4.53333 15.5086ZM10.9333 15.7057C10.9333 14.72 10.6 14.1286 9.46667 14.1286H8.66667V17.1514H9.66667C10.3333 17.1514 10.9333 16.7571 10.9333 15.7057ZM8.86667 5.65143H12.3333C12.6667 5.65143 12.9333 5.38857 12.9333 5.06C12.9333 4.73143 12.6667 4.46857 12.3333 4.46857H8.86667C8.53333 4.46857 8.26667 4.73143 8.26667 5.06C8.33333 5.38857 8.6 5.65143 8.86667 5.65143ZM24 7.95143V20.1743C24 21.9486 22.8667 23 21.0667 23H7.53333C5.8 23 4.66667 21.8829 4.66667 20.1086V19.5171H1.33333C0.6 19.5171 0 18.9257 0 18.2029V13.2086C0 12.4857 0.6 11.8943 1.33333 11.8943H17.5333C18.2667 11.8943 18.8667 12.4857 18.8667 13.2086V18.2029C18.8667 18.9257 18.2667 19.5171 17.5333 19.5171H6.13333V20.1086C6.13333 21.0943 6.6 21.4886 7.53333 21.4886H21.0667C22.0667 21.4886 22.4667 21.0943 22.4667 20.1743V8.80571H17.8C16 8.80571 14.8667 7.68857 14.8667 5.91429V1.44571H7.53333C6.53333 1.44571 6.13333 1.90571 6.13333 2.82571V9.39714C6.13333 9.79143 5.8 10.12 5.4 10.12C5 10.1857 4.66667 9.85714 4.66667 9.46286V2.89143C4.66667 1.11714 5.8 0 7.53333 0H15.8667C16.0667 0 16.2667 0.0657143 16.4 0.197143L23.8 7.42571C23.9333 7.62286 24 7.75429 24 7.95143ZM21.5333 7.29429L16.4 2.23429V5.91429C16.4 6.9 16.8667 7.29429 17.8 7.29429H21.5333ZM13.1333 18.0057H14.2V16.0343H16.2667V15.2457H14.2V14.1286H16.6667V13.2743H13.1333V18.0057ZM7.6 18.0057H9.73333C11.2667 18.0057 12 16.9543 12 15.5743C12 13.9971 11 13.2086 9.73333 13.2086H7.6V18.0057ZM4.86667 16.2971C6.13333 16.2971 6.6 15.5086 6.6 14.7857C6.6 13.9971 6.13333 13.2743 4.86667 13.2743H2.6V18.0714H3.66667V16.2971H4.86667ZM8.86667 8.28H12.3333C12.6667 8.28 12.9333 8.01714 12.9333 7.68857C12.9333 7.36 12.6667 7.09714 12.3333 7.09714H8.86667C8.53333 7.09714 8.26667 7.36 8.26667 7.68857C8.33333 8.01714 8.6 8.28 8.86667 8.28Z" fill="#8F94AE"/>
</svg>
