<svg width="15" height="14" viewBox="0 0 15 14" fill="none" xmlns="http://www.w3.org/2000/svg">
<path d="M7.91058 10.4667C9.16089 10.4667 10.1745 9.43432 10.1745 8.16086C10.1745 6.8874 9.16089 5.85505 7.91058 5.85505C6.66027 5.85505 5.6467 6.8874 5.6467 8.16086C5.6467 9.43432 6.66027 10.4667 7.91058 10.4667Z" fill="white"/>
<path d="M5.78818 0.9552L4.51474 2.39633H2.25086C1.47265 2.39633 0.835938 3.04484 0.835938 3.83746V12.4842C0.835938 13.2768 1.47265 13.9253 2.25086 13.9253H13.5703C14.3485 13.9253 14.9852 13.2768 14.9852 12.4842V3.83746C14.9852 3.04484 14.3485 2.39633 13.5703 2.39633H11.3064L10.033 0.9552H5.78818ZM7.91056 11.7637C5.92967 11.7637 4.37325 10.1784 4.37325 8.16084C4.37325 6.14326 5.92967 4.55802 7.91056 4.55802C9.89146 4.55802 11.4479 6.14326 11.4479 8.16084C11.4479 10.1784 9.89146 11.7637 7.91056 11.7637Z" fill="white"/>
</svg>
