<svg width="11" height="11" viewBox="0 0 11 11" fill="none" xmlns="http://www.w3.org/2000/svg">
<path d="M9.92776 4.68436C9.81595 4.57255 9.66148 4.50339 9.49078 4.50347L0.752988 4.50317C0.411585 4.50316 0.135149 4.7796 0.135254 5.12091C0.135266 5.46212 0.41172 5.73876 0.75303 5.73868L9.49082 5.73899C9.83223 5.739 10.1087 5.46256 10.1086 5.12125C10.1086 4.95055 10.0396 4.79618 9.92776 4.68436Z" fill="#0063D7"/>
<path d="M5.55828 0.315562C5.44647 0.203748 5.2921 0.134678 5.1214 0.134766C4.78009 0.134661 4.50356 0.411189 4.50366 0.752499L4.50396 9.49029C4.50397 9.8317 4.78043 10.1082 5.12174 10.1081C5.46296 10.1081 5.73958 9.83165 5.73947 9.49034L5.73917 0.752542C5.73926 0.58184 5.6701 0.427376 5.55828 0.315562Z" fill="#0063D7"/>
</svg>
