<svg width="185" height="118" viewBox="0 0 185 118" fill="none" xmlns="http://www.w3.org/2000/svg">
<path d="M179.96 39.0284C179.622 39.0157 179.182 39.0591 178.663 39.0796C179.454 35.1915 183.824 36.0353 184.072 37.8236C183.779 39.7115 104.275 92.5732 78.5462 84.6506C78.4674 84.6276 78.3655 84.6837 78.1061 84.694C76.3374 88.1256 66.9245 117.215 66.8227 117.271C65.9426 117.358 66.4154 117.496 65.0662 116.846C64.322 114.999 67.5166 105.204 74.7753 76.1736C75.4324 75.6786 75.9148 76.0765 76.3415 76.3724C76.7742 77.528 76.1462 78.8036 76.9632 79.8138C77.8797 79.3085 82.7812 65.1208 82.9328 64.3069C82.46 64.1692 82.9001 64.1258 76.9914 71.4995C76.4459 72.1986 75.7198 72.9309 74.9609 73.4821C72.8419 75.1815 71.5448 75.2327 69.2211 73.5263C68.0452 74.0418 66.7579 74.3532 65.3857 73.782C62.9902 76.4305 60.7621 79.385 56.934 78.4417C55.5398 81.4676 52.7135 95.5734 51.083 98.5304C50.0223 98.6505 50.0223 98.6505 49.0901 98.0358C48.8394 94.7882 55.2914 79.6792 54.888 73.7274C55.2165 73.4799 55.6468 73.1763 56.2808 72.7603C60.0052 61.1469 63.8993 51.2988 63.8993 51.2988C60.3656 51.9856 39.4608 59.1957 34.6919 60.8955C32.9486 65.7073 34.5233 62.6482 28.9187 77.4891C28.1391 79.5787 28.3755 79.6475 27.6455 86.5562C27.5861 87.0536 27.4478 87.5282 27.9533 87.847C30.1718 84.6322 31.4908 80.9838 33.3711 77.7563C34.6221 77.8633 34.6221 77.8633 35.4524 78.5341C35.3797 79.3709 35.3626 80.3098 35.3226 81.3277C37.3264 80.0237 38.5122 74.1916 40.4239 73.204C43.7502 73.229 42.5997 75.1247 49.5507 70.6286C50.1156 70.4499 50.7229 70.7126 51.2248 71.6309C50.0513 73.6057 47.3116 75.3817 42.2519 74.8518C40.3862 75.6812 38.4633 84.0442 35.0643 84.856C34.4339 84.6724 33.7017 84.5449 32.835 84.2925C31.2506 87.0914 30.5995 88.4461 28.9169 90.7016C27.8028 92.1789 25.5178 91.5134 25.3155 89.5669C25.2731 89.1255 25.2307 88.6842 25.1786 87.9826C24.2621 88.4879 23.4061 92.0137 22.3041 95.2105C21.7489 95.6494 21.2762 95.5117 20.784 94.8536C21.6861 91.1695 23.2184 87.6691 24.5605 83.9417C23.6574 84.1076 24.3605 83.4544 15.706 97.3213C7.6891 110.173 7.93883 109.902 5.31671 112.742C0.322178 118.151 -3.17091 106.666 9.68964 72.4891C9.95272 71.8794 10.0812 71.1446 10.3674 70.4558C8.73208 70.4943 7.27377 71.0991 3.24673 73.1866C2.95459 73.0157 2.56063 72.9009 2.03212 72.6612C3.17892 71.365 4.10506 71.12 11.3178 68.0728C15.116 59.1407 22.6083 39.8732 32.5537 30.6722C32.9282 30.2665 33.4374 29.9858 33.9235 29.7842C36.6498 28.3475 39.2136 29.5232 39.7929 32.5233C41.0497 39.0668 37.0658 50.6905 35.4714 58.806C36.3382 59.0584 64.406 49.5588 65.0728 49.324C73.7796 30.5819 73.2668 31.4621 75.4562 27.4667C75.7751 26.959 76.1727 26.4742 76.4685 26.0455C77.1122 25.8898 77.5849 26.0275 77.8964 26.7188C74.2801 33.559 71.2251 40.8201 67.8875 48.1705C69.7822 48.1217 91.3828 41.4575 92.0496 41.2227C93.6631 39.2044 105.421 4.70587 110.969 0.916573C111.872 0.750613 112.581 0.957151 113.287 1.76321C115.224 7.73265 98.0804 37.8313 97.9022 39.3237C98.3519 39.5405 169.924 20.6615 171.643 23.5645C171.643 23.5645 126.841 32.9951 96.5808 41.5128C93.7537 46.5237 88.022 54.4638 78.9741 82.8876C87.0699 95.8846 179.029 41.9318 179.96 39.0284C180.354 39.1431 180.581 38.9518 180.631 38.1941C180.335 38.6227 180.108 38.8141 179.96 39.0284ZM26.784 78.0686C30.0634 69.1569 32.0104 64.2328 32.1365 62.0388C29.5618 62.6617 15.5703 67.8528 13.0706 69.0981C9.97551 77.3771 0.840422 103.459 2.97597 111.975C11.3091 102.733 22.7909 78.2783 26.784 78.0686ZM71.6807 73.2989C74.7342 73.6735 90.1908 52.0067 91.0567 43.1642C87.6576 43.976 68.9045 49.6679 66.9044 50.3723C64.0736 55.9827 58.1161 73.2091 57.5159 77.3242C61.9586 77.3312 65.2077 69.6976 65.5265 69.1899C66.4296 69.0239 67.0599 69.2075 67.4042 70.08C66.6937 71.9322 66.444 72.2027 67.0052 72.6235C69.2782 71.5696 69.7946 70.0898 71.116 67.9007C71.9731 67.8929 72.5476 67.9745 72.8361 68.7449C72.5003 70.1915 71.4323 71.5106 71.6807 73.2989ZM32.893 60.0284C34.6134 55.2957 40.4559 32.888 36.8752 30.2149C36.4909 30.3604 36.0739 30.3247 35.7454 30.5722C25.8935 37.398 14.3836 64.59 14.3132 66.8861C20.6423 64.5253 26.7677 62.2769 32.893 60.0284ZM110.964 3.57489C107.756 8.13174 97.4079 31.6295 95.5845 38.4771C97.9315 34.5275 112.065 8.01375 110.964 3.57489ZM74.5251 87.5977C76.6104 82.1992 76.2188 83.5437 75.9243 81.9135C74.9083 83.9342 74.7955 85.7889 74.5251 87.5977Z" fill="white"/>
</svg>
