<svg width="339" height="27" viewBox="0 0 339 27" fill="none" xmlns="http://www.w3.org/2000/svg">
<circle cx="169.5" cy="13.5" r="13.5" fill="#94EBDF"/>
<path d="M166.226 13.9355C166.708 14.0723 167.076 14.3321 167.33 14.7151C167.613 15.0707 167.755 15.5083 167.755 16.028C167.755 16.6845 167.543 17.2178 167.118 17.6281C166.693 18.0384 166.17 18.2436 165.547 18.2436C164.868 18.2436 164.316 18.0384 163.891 17.6281C163.495 17.1905 163.297 16.6571 163.297 16.028C163.297 15.6998 163.325 15.3852 163.382 15.0843C163.467 14.7561 163.622 14.2911 163.849 13.6893L165.632 8.02734H167.67L166.226 13.9355ZM173.444 13.9355C173.925 14.0723 174.293 14.3321 174.548 14.7151C174.831 15.0707 174.973 15.5083 174.973 16.028C174.973 16.6845 174.76 17.2178 174.336 17.6281C173.911 18.0384 173.387 18.2436 172.765 18.2436C172.085 18.2436 171.534 18.0384 171.109 17.6281C170.713 17.1905 170.515 16.6571 170.515 16.028C170.515 15.6998 170.543 15.3852 170.599 15.0843C170.684 14.7561 170.84 14.2911 171.067 13.6893L172.85 8.02734H174.888L173.444 13.9355Z" fill="#142E55"/>
<line x1="4.37114e-08" y1="12.5" x2="128" y2="12.5" stroke="#E8E8E8"/>
<line x1="211" y1="12.5" x2="339" y2="12.5" stroke="#E8E8E8"/>
</svg>
