<svg width="14" height="14" viewBox="0 0 14 14" fill="none" xmlns="http://www.w3.org/2000/svg">
<path d="M5.76955 11.5301C2.5882 11.5301 0 8.94394 0 5.76506C0 2.58619 2.5882 0 5.76955 0C8.95089 0 11.5391 2.58619 11.5391 5.76506C11.5391 8.94394 8.95089 11.5301 5.76955 11.5301ZM5.76955 1.0929C3.1913 1.0929 1.09375 3.18882 1.09375 5.76506C1.09375 8.34131 3.1913 10.4372 5.76955 10.4372C8.3478 10.4372 10.4453 8.34131 10.4453 5.76506C10.4453 3.18882 8.3478 1.0929 5.76955 1.0929Z" fill="#8B8EA1"/>
<path d="M13.4531 14C13.3132 14 13.1732 13.9467 13.0664 13.84L10.6191 11.3946C10.4056 11.1812 10.4056 10.8352 10.6191 10.6218C10.8327 10.4084 11.179 10.4084 11.3926 10.6218L13.8398 13.0672C14.0534 13.2806 14.0534 13.6266 13.8398 13.84C13.7331 13.9466 13.5931 14 13.4531 14Z" fill="#8B8EA1"/>
</svg>
