<svg width="16" height="12" viewBox="0 0 16 12" fill="none" xmlns="http://www.w3.org/2000/svg">
<path d="M13.3226 1.31964C13.1184 0.558699 12.4606 0 11.6821 0C10.9037 0 10.2458 0.558699 10.0415 1.31964H0V2.31913H10.0416C10.2458 3.07994 10.9037 3.63877 11.6821 3.63877C12.4606 3.63877 13.1184 3.07994 13.3228 2.31913H16V1.31964H13.3226ZM11.6821 2.63928C11.2581 2.63928 10.9131 2.2715 10.9131 1.81938C10.9131 1.36727 11.2582 0.99949 11.6821 0.99949C12.1062 0.99949 12.4512 1.36727 12.4512 1.81938C12.4512 2.2715 12.1062 2.63928 11.6821 2.63928Z" fill="#142E55"/>
<path d="M3.00476 4.18055C2.22632 4.18055 1.56848 4.73938 1.36426 5.50019H0V6.49968H1.36426C1.56848 7.26062 2.22644 7.81932 3.00488 7.81932C3.78333 7.81932 4.44116 7.26062 4.64539 6.49968H16V5.50019H4.64539C4.44116 4.73938 3.7832 4.18055 3.00476 4.18055ZM3.00476 6.81983C2.58081 6.81983 2.23584 6.45205 2.23584 5.99994C2.23584 5.54795 2.58081 5.18004 3.00476 5.18004C3.42883 5.18004 3.7738 5.54795 3.7738 5.99994C3.7738 6.45205 3.42883 6.81983 3.00476 6.81983Z" fill="#142E55"/>
<path d="M8.26282 8.36123C7.48438 8.36123 6.82642 8.91993 6.62219 9.68087H0V10.6804H6.62219C6.82642 11.4412 7.48438 12 8.26282 12C9.04114 12 9.6991 11.4412 9.90332 10.6804H16V9.68087H9.90332C9.6991 8.91993 9.04114 8.36123 8.26282 8.36123ZM8.26282 11.0005C7.83875 11.0005 7.49377 10.6327 7.49377 10.1806C7.49377 9.7285 7.83875 9.36072 8.26282 9.36072C8.68677 9.36072 9.03186 9.7285 9.03186 10.1806C9.03186 10.6327 8.68689 11.0005 8.26282 11.0005Z" fill="#142E55"/>
</svg>
