<svg width="21" height="21" viewBox="0 0 21 21" fill="none" xmlns="http://www.w3.org/2000/svg">
<path d="M10.4651 19.25H2.61626C2.13486 19.25 1.74419 18.858 1.74419 18.3751V2.62503C1.74419 2.14202 2.13491 1.75004 2.61626 1.75004H10.4651C10.9474 1.75004 11.3372 1.35893 11.3372 0.875063C11.3372 0.391194 10.9474 0 10.4651 0H2.61626C1.17383 0 0 1.17778 0 2.62503V18.375C0 19.8223 1.17383 21 2.61626 21H10.4651C10.9474 21 11.3372 20.6089 11.3372 20.125C11.3372 19.6411 10.9474 19.25 10.4651 19.25Z" fill="#8B8EA1"/>
<path d="M20.7401 9.87696L15.4378 4.62695C15.0959 4.28745 14.543 4.29185 14.2047 4.63572C13.8663 4.97959 13.8698 5.53346 14.2134 5.87296L18.0026 9.62494H7.84883C7.36657 9.62494 6.97675 10.0161 6.97675 10.4999C6.97675 10.9838 7.36657 11.3749 7.84883 11.3749H18.0026L14.2134 15.1269C13.8698 15.4664 13.8672 16.0203 14.2047 16.3642C14.3756 16.5374 14.6006 16.6249 14.8256 16.6249C15.0471 16.6249 15.2686 16.5409 15.4378 16.3729L20.7401 11.1229C20.9058 10.9584 21 10.7344 21 10.4999C21 10.2655 20.9067 10.0424 20.7401 9.87696Z" fill="#8B8EA1"/>
</svg>
