<svg width="18" height="10" viewBox="0 0 18 10" fill="none" xmlns="http://www.w3.org/2000/svg">
<path d="M15.4916 6.3585C16.0886 6.9308 16.7189 7.46921 17.2543 8.09921C17.491 8.37918 17.7149 8.66805 17.8862 8.99296C18.129 9.45481 17.9091 9.96306 17.4872 9.99063L14.865 9.98946C14.1886 10.0445 13.6491 9.77727 13.1954 9.32329C12.8323 8.96024 12.4962 8.57387 12.1471 8.19857C12.0039 8.0452 11.8541 7.90086 11.6751 7.78676C11.3173 7.55866 11.0065 7.62848 10.8019 7.99501C10.5936 8.36782 10.5463 8.7806 10.5258 9.19607C10.4977 9.80226 10.3111 9.96164 9.69081 9.98939C8.36524 10.0507 7.10721 9.85389 5.93851 9.19742C4.90816 8.6187 4.1092 7.80167 3.41374 6.87675C2.05977 5.07575 1.02283 3.09669 0.0909075 1.06221C-0.11887 0.603843 0.0345521 0.357798 0.549732 0.349066C1.40519 0.332741 2.26054 0.333915 3.11701 0.347892C3.46471 0.352897 3.69488 0.548657 3.82914 0.871113C4.29197 1.98834 4.85831 3.05127 5.56916 4.03652C5.75848 4.29883 5.95152 4.56115 6.22637 4.74577C6.53048 4.95019 6.76201 4.88245 6.90507 4.54988C6.99584 4.33899 7.0356 4.11186 7.05606 3.88604C7.12384 3.10905 7.13277 2.33336 7.01391 1.5591C6.94092 1.07588 6.66368 0.763052 6.17251 0.671627C5.92189 0.625 5.95919 0.533436 6.08054 0.393001C6.29131 0.150788 6.48955 0 6.88474 0H9.84835C10.3149 0.09039 10.4185 0.296157 10.4824 0.757012L10.4849 3.98872C10.4798 4.16712 10.5757 4.69659 10.903 4.81466C11.165 4.89874 11.3377 4.69297 11.4949 4.52989C12.2044 3.79058 12.7109 2.91684 13.1633 2.01212C13.3641 1.61428 13.5368 1.20116 13.7041 0.78835C13.8281 0.482046 14.0226 0.331326 14.374 0.337987L17.2264 0.340472C17.3109 0.340472 17.3965 0.34168 17.4784 0.355451C17.959 0.435867 18.0907 0.638839 17.9422 1.09959C17.7083 1.82247 17.2532 2.42489 16.8083 3.03008C16.3326 3.6762 15.8238 4.30023 15.3522 4.95019C14.9187 5.54382 14.9532 5.84298 15.4916 6.3585Z" fill="#5C78A1"/>
</svg>
